<svg id="Layer_1" data-name="Layer 1" xmlns="http://www.w3.org/2000/svg" viewBox="0 0 2880 1800"><defs><style>.cls-1{fill:#222121;}</style></defs><title>BACKGROUNDWEB2</title><path class="cls-1" d="M683.19,884.44l2.89-4.57a127.14,127.14,0,0,1,18.53,2.46,16.56,16.56,0,0,1,5.8,2.31c2.33,1.45,4.31,2.74,22.2,3.81,7.3-2.74,22.12-1,36.68,1.05L780,891.05c3.49.53,6.84,1,9.94,1.4,6.19.77,11.36,1.13,14.55.58-.34.5,17.12,2.64,15.77,4.62,5.77-3.06,18.08,1.26,29.21,1.62,4.12-.55-2.8-1.44-5.66-2.89l25.42,1.71C879,900.5,881.18,903,870.4,902l35.48,5,53.17,7.7c40.05,5.87,88,13.25,136.25,20.84l137.51,21.9c40.88,6.49,74.22,11.65,92.18,14-8.76-4.2-31.13-5.83-38.82-11.47,19.26.55,27.7,5.24,36.43,4,6.23,7.57,41.32,8.09,54.64,16.86l6-2.79,9.06,3.7c42,4.64,46.81,4.89,50.38,5.57s5.84,1.77,42.79,7.87c21.47,3,37.51,4,51.13,4.89s24.8,1.78,36.63,4.44c-3.55-.56-12.7-4.17-1.43-3.48,1.43,3.47,30,2,34.93,6,11,1.14,46.3,6.56,34.94.49,5.68,3.07,37.2,8.24,18.11,7.58,10.65,1.59,20.9,3.64,28.71,3.72l-13.53-3.09c18,2.18,31.92,4.63,44.26,6.54,6.17.94,12,1.74,17.71,2.22a140.06,140.06,0,0,0,17.49.36l-13.14-3.4c21.66,2.38,39.75,4.35,47.76,9.63-7.47-.4-14.93-.87-22.39-1.34,35.91,4.24,57.64,6.43,87.89,7.32l-10.69-1.28c19.32,0,79.09,4.2,138.62,6.83s118.8,3.68,136.65,1.66l-16.14-4.19,30.56-1.38c-3.59-.22-15.19,10.31-18.17,9.05,32.65,1.49,134.09,5.12,235.23,2.25,50.55-1.29,101-3.93,142.52-6.82l29.37-2.28c9.15-.72,17.61-1.29,25.23-2,15.26-1.38,27.23-2.37,34.83-2.84,24.62-1,5,4.86,4.77,5.44,29.63-4.79,12.42-5.1,37.74-7.82,7-.21-1.09,2.81-4.92,3.76,2.76-.43,5.48-.76,8-1l6.93-.82c4.06-.52,6.83-1,7.15-1.85-14,.69-8.69-4.28-14.89-6.22l32.43-4.1-1.06,2.83c3.62-.48,8-2.86,15.35-5.63s17.84-6,33.81-7.81c26.8-3.91,54.64-8.9,82.38-14.7,13.91-2.67,27.7-6,41.42-9l10.26-2.29,5.11-1.14,5.07-1.24,20.1-4.83c-.43,1.75-11.34,5.44-22.31,9.13,7.14-1.69,17.89-4.79,24.73-5.31-13.51.46,21.81-7.37,11.5-6,4.66-1.94,9.49-4,14.5-5.84s10.17-3.6,15.43-5.26,10.62-3.24,16-4.77,10.76-3.25,16.12-4.82l15.94-4.68,7.78-2.33c1.28-.39,2.56-.77,3.82-1.18l3.74-1.27a273.75,273.75,0,0,0,27.17-10.69c.26-1.65,2.93-9.83,6.54-21.42s8.1-26.64,12.3-41.54c2.1-7.45,4.13-14.88,6-21.88s3.4-13.72,4.7-19.51c2.58-11.64,4-19.91,3.34-21.53,9.65-3.57,19.25-7.12,22.4-7.72-3.09-.57-22.24,5.94-31.93,10.68l-.42,4.16c-2.84,1.26-5,2.23-6.83,2.91s-3.1,1.1-4.11,1.38a7.92,7.92,0,0,1-3.55.42c-1.53-.18-3-.52-14.39,3.64-1.11-1.22,3.51-3.85,10.7-7,1.8-.79,3.75-1.62,5.82-2.46s4.26-1.69,6.46-2.65c4.43-1.87,9.11-3.77,13.65-5.59-16.48,6.17-33.82,9.68-39.44,15.28-16,4.32.5-4.1-18.68,1.26-6.59,2.62-14.07,6.09-21.93,9.32s-16,6.32-24.16,7.7l.12-.6a241.81,241.81,0,0,0-25.82,7.06l-11.14,3.81c-3.6,1.24-7.11,2.5-10.59,3.75-7,2.51-13.83,5-21.19,7.26-3.67,1.18-7.52,2.1-11.55,3s-8.26,1.73-12.76,2.45l3.55-1.93c-6.45.67-15.63,3.19-26.11,5.84s-22.33,5.28-33.82,6.91c6.57-.85,12.66,0-.87,3.46l-9.54,1.44c-3.06.48-6,1-8.83,1.48-5.68,1-11,2.07-16,3.06a200.79,200.79,0,0,1-29.27,4.11l-17.94,6.26-4.5.78-4.9.76-10.9,1.71L2655,906.84c-19,2.63-41.16,6.09-65.61,9l-18.7,2.34-19.46,2.09-20.07,2.17c-6.78.69-13.68,1.25-20.62,1.9l-21,1.9c-7.07.62-14.22,1.07-21.38,1.62l-21.6,1.59c-7.23.5-14.49.85-21.74,1.29-58,3.42-116.34,4.77-166.07,4.8l-18.23,0c-5.93,0-11.71,0-17.32-.11l-31.5-.49c-4.87-.05-9.53-.19-14-.32l-12.65-.37-20.93-.64,3.74-.34c-36.17-1.21-81.88-3.26-132.46-6.86s-106-8.45-161.57-14.22-111.3-12.35-162.56-18.74l-135.72-17.06c-11.37-3.18-25.08-5.8-39-8.24s-27.92-4.59-40-6.88c13.28,3.3,8.35,4.64-2.15,2.9-36.86-5.87-38.19-5.6-39.65-5.1s-3,1.17-40.49-4.08c-21.61-2.7-58.36-8.19-102.61-15.11l-147.48-23.4c-51.52-8.18-102.86-16.15-146.16-22.71L900.25,779c-10.53-.23-21.64-1-33.06-2s-23.09-2.32-34.76-3.6-23.32-2.56-34.62-3.65-22.28-1.84-32.58-2.22l4.23-.6c-5.52-.34-14.22-1.17-25.35-2.17s-24.68-2.27-39.86-3.74l-49.72-4.39-27.1-2.2c-4.59-.36-9.2-.78-13.84-1.1l-14-1-27.91-2-27.44-1.61c-18-1.14-35.28-1.78-51-2.49-3.94-.16-7.78-.35-11.52-.47l-10.88-.31L451.34,745c-11.91-.32-21.51-.29-28-.18l6.94.71c-11.28.53-19.35.63-25.67.47s-10.88-.64-15.15-1.12c-8.54-1-15.9-2.57-33.7-3.28,2.35,2.44-6.14,4.29-17,5.86s-24.23,2.51-31.6,2.82l.53-1.07c-5.55.29-12.86,1-21.26,1.72l-13.34,1.25-14.49,1.49-30.5,3.1-15,1.41c-4.91.47-9.69.9-14.25,1.25l1.27-2.74c-7.59,1.17-16.88,2.16-26.86,3.2s-20.69,1.85-31.12,2.79l-15.33,1.26c-5,.39-9.73.85-14.19,1.23-8.92.8-16.61,1.43-22.07,2.07-25.06,1.91-57,4-90.9,7.48s-69.82,8.58-102.71,15.83c-14.71-.2-29.41-.07-44.16-.06l-6.13,1.91a148,148,0,0,0-6.72,16.12c-3.44,9.69-7,22.62-7.71,35.64s1.43,26.13,9.25,36.19a41.24,41.24,0,0,0,16.28,12.43,60.15,60.15,0,0,0,12,3.78,94.21,94.21,0,0,0,14.9,1.88l-.88,2.85,16.6-3.27c20.23-2.05,29-6.6,28.06-3.77l-27.48,4.23c20.24-2.58,6.42,1.11-1,3.91,8.42-1.19,16.62-2.18,23.43-2.49,3.79-1.66-3.09-.61-6.31-.66,5.33-1.33,11.65-3.32,18.33-4.93a119.42,119.42,0,0,1,20.39-3.45c20.68-2.81,2,4,26.06.84q47.72-5.95,95-10.14t94.63-6.85c31.56-1.86,63.18-3.18,95-4.16s63.82-1.54,96.21-1.85c3,1.1-.56,1.06-4.3,1.56,9.75-.3,19.24-.5,28.54-.65l6.94-.1h6.88l13.6,0,13.44,0c4.46,0,8.9,0,13.34,0,8.88.09,17.73.12,26.64.06,9.86,1.44,12.5,3.15,15.39,4.38-1.45-.61,10.12-.58,28.34-.19,9.11.14,19.89.6,31.54,1.08l18,.77c6.16.25,12.44.67,18.73,1l18.84,1.1,9.27.55,9.08.65,32.84,2.4C669.12,883,682.4,884.23,683.19,884.44Z"/><path class="cls-1" d="M2585.81,1224.39c-2.17.38-4.64.75-7.15,1.22C2580.93,1226.67,2583.33,1227,2585.81,1224.39Z"/><path class="cls-1" d="M513.73,2033.76l6.76-47.48c10.74.88,10.58,14.6,10.39,27s-.46,23.43,10.05,18.89c8.39-33.05,16.52-30.35,24-23.26,3.74,3.49,7.25,7.94,10.63,9.36s6.6-.23,9.9-8.76c-1,5.29,8.76,9.11,4.47,29.91,4.68-17.87,7.67-19.52,10.45-17.73s5.32,7,9.41,3c4.23-9.6.27-11.2.53-22.39,2.84-1.74,5.79-3.32,8.71-5l8.81-4.91c3.71,12.79.88,34.32-6.18,37,18.12,10.1,72.4,33.73,131.12,58.44l11,4.56c3.67,1.51,7.31,2.94,11,4.51,7.4,3.06,14.75,6,22,8.82,3.59,1.37,7.26,2.87,10.84,4.25s7.14,2.75,10.64,4.06,7,2.57,10.34,3.78,6.81,2.49,10.11,3.64c6.62,2.33,13,4.42,19,6.24s11.8,3.56,17.1,4.86,10.2,2.33,14.6,3a71.47,71.47,0,0,0,11.72.93c1.33-14.22-3.27-18.19-7.06-23.86s-7-13.29-3-35c10.16-9.58,14.23-6,17.41-2.89s5.55,5.87,12.47-5.4c-7.8,31.69-2,37.75,4.33,44.11s13.34,13.12,7.42,45.95l15.75-33.55-1,23.53,20.91-5.17c5.42-1.38,9.39-2.45,12.32-3.22,5.87-1.54,7.6-1.84,8.64-.84s1.36,3.32,4.43,7,9,8.94,21.08,15.66c31.73,5.63,64.29-36.74,74.71-12.61-2.38-1.32-1.16-25,10.15-30.76-5.07,15.38,2.28,12,10,8.71a49.56,49.56,0,0,1,5.63-2.11,8.37,8.37,0,0,1,4.71-.21c2.55.87,3.63,4.13,1.7,12.15,4.76-.35,13.3,3,21.54.78s16.25-9.81,19.77-32.19c-3.47,22.34,16.86,40-4.16,52.37,7.49,4.32,12.82,13.39,22.12,6.52l-5.74-15.48a34.73,34.73,0,0,1,9.81,3,46.54,46.54,0,0,1,8,5c4.89,3.73,9,7.94,13.13,11.06s8.4,5.13,13.67,4.5,11.58-3.9,19.75-11.44l-3.76-20.4c8.78,2,16.93,3.54,21.68,10s6.11,17.9,1.37,39.57c-7.41,1.89-14.65,3.86-22,5.8,13.82,4.84,25.43,8.38,37.33,9a77.86,77.86,0,0,0,18.64-1.25,119.6,119.6,0,0,0,21.77-6.37l-7.92-4.43c22.89-14.46,76.92-14.48,132.47-15.63,13.94-.29,27.79-.67,41.31-1.39s26.61-1.77,38.66-3.42c24.29-3.3,44.52-9,56.66-19l-1.28-36.86,35.12-17.27c-1.41-.75-14.18,23.92-26.47,47.34s-24.08,45.61-23.35,40c6.91,2.19,17.55,5.39,30.92,9.38l10.53,3.14,11.6,3.4,25.69,7.55L1764.24,2248c44.93,13.11,90.3,26.5,127.88,38.76l13.72,4.54q6.68,2.23,12.88,4.43c8.27,2.92,15.85,5.8,22.68,8.57,13.79,5.47,24.35,10.65,30.64,15.42,8.84,12.31,6.33,25.59,1.27,36.44s-12.57,19.23-13.43,21.78c7.88-1,13.28-3.57,17.19-6.58a42,42,0,0,0,8.57-9.56c4.4-6.12,7.73-10.51,19.4-5.85,5,7.7-8.25,25.37-13.27,29,11.69-1,18.57,13,23.43-2.1-10.15-15.49,6.29-54.71,7.82-82.65,4.93,1.95,9.81,3.94,14.8,5.85l15,5.71-8,25.43c3.38,1.28,12.3-15.22,23.61-29.38,5.66-7.08,11.91-13.57,18.4-16.95s13.35-3.78,20.12,1.52a233.64,233.64,0,0,0,38.19,14.33c6.63,1.9,13.34,3.63,20.09,5.25q5.06,1.21,10.16,2.35c3.39.77,6.86,1.43,10.3,2.13,13.79,2.74,27.56,5.38,41.25,8.22s27.35,5.84,40.5,9.82c-3.6,15.56-16.6,22.76-29.77,29.84,7.16,2.16,19,.18,23.72,12.71-2.07-7.55-1.46-12.21.47-15.18s5.18-4.24,8.47-5.05c6.56-1.59,13.11-1.13,9-7.84,12.73-14.37,24.7-21,36.27-23.41a64.6,64.6,0,0,1,17.18-1.12,125.33,125.33,0,0,1,16.77,2.41c5.53,1.11,11,2.37,16.42,3.33a81.89,81.89,0,0,0,16.24,1.34c10.73-.32,21.23-3.62,31.33-13.5,1.23-7.22,5.15-28.08,11-59.22s13.53-72.64,22.25-121c17.49-96.76,38.81-221.21,58.25-346.2,9.74-62.49,19.07-125.11,27.51-184.43s16-115.5,22.34-164.87c12.71-98.74,20.75-170.53,22.19-187.86,5.55,1.71,11.09,3.45,12.43,9.32-.39-16.46-10.69-25.17-17.34-16.29l-4.25,37.06c-7.56,6-8,.3-8.08-6.58s-.09-15.13-7-14.58c1.19-15.21,5.05-24.12,9.9-29.44s10.65-7.29,16-8.3c-2.29-1.07-4.46-3.3-6.54-5.53-1-1.11-2-2.22-3-3.19a16,16,0,0,0-3-2.41c-3.87-2.26-7.44.18-11.12,16.58-3.89-6.78-2.62-16-1.61-25.33s1.78-18.69-2.73-25.69a42.51,42.51,0,0,0-3.39,3.89c-1.21,1.5-2.47,3.18-3.77,4.92a117.69,117.69,0,0,1-8,10c-5.38,5.7-10.62,8-13.87-1.43l.88-5.31c-4.41-8.61-9-10.36-13.86-8.66a24.24,24.24,0,0,0-7.34,4.71c-2.48,2.15-5,4.74-7.53,7.22-5.08,5-10.18,10.07-15,11.73a8,8,0,0,1-6.95-.47,11.45,11.45,0,0,1-3.22-2.93,26.29,26.29,0,0,1-3.05-5.27l4-9.62c-2.16-9.39-7.86-8.92-14.33-8.71-3.24.09-6.64.17-9.89-1.18s-6.35-4.12-8.79-9.42c2.61,6.81,1.75,29.17-7.25,31-6-11.06-12.53-12.28-18.68-14.3s-11.53-4.3-14.71-17.16l-4.47,6.67-4.54,6.59-9.15,13.16c-3.5-1.21-7.71-2.4-12.53-3.55-2.42-.59-5-1.12-7.71-1.73s-5.66-1.25-8.69-1.87c-6.08-1.25-12.68-2.43-19.79-3.66s-14.85-2.71-22.9-4l-6.11-1-6.33-1.12-13-2.23-6.69-1.11c-2.25-.36-4.51-.73-6.84-1.16l-14.07-2.47-14.39-2.46-14.84-2.71-15-2.68-15.31-2.9c-40.89-7.67-83.33-16.46-120.18-24.83l-26.5-6.2-6.17-1.46-6-1.5-11.44-2.87c-7.34-1.87-14-3.56-20-5.22s-11.35-3.19-15.81-4.55l4.41-3.44c-7-1.64-14.3-3.45-22.09-5.54s-16-4.45-24.56-6.94-17.49-5.23-26.72-8.08-18.71-5.83-28.62-9l-30.27-9.82-31.67-10.4-32.86-10.78-33.7-10.9c-45.35-14.51-92.24-28.74-136.95-40-11.23-2.81-22.17-5.42-33-7.81s-21.53-4.55-31.84-6.44c-5.1-.93-10.37-1.84-15.5-2.67s-10.17-1.58-15.11-2.26c-9.89-1.35-19.34-2.39-28.52-3-5-17.56-15.2-27.38-26.5-34.72s-23.82-12.21-33.22-20c7.84,15.91-3.41,34-12.32,29.48-32.54-13.43-35.39-9-38.95-2.78-1.78,3.12-3.76,6.7-9.72,8.76s-16,2.65-33.91-.23a142.32,142.32,0,0,1-18.5-1.66c-6.94-1-14.56-2.46-22.76-4.31-16.31-3.75-35.31-8.92-55.76-15.29-41.11-12.62-89-29.55-137.45-47.13-12.19-4.34-24.37-8.76-36.39-13.22l-9-3.35-9-3.28-17.84-6.57-17.46-6.56-17.21-6.35-16.64-6.28c-5.46-2.07-10.74-4.17-16-6.13-10.56-4-20.62-7.85-30.05-11.6l-13.71-5.5q-6.68-2.64-12.82-5.16c-8.18-3.37-15.6-6.57-22.13-9.58-3.27-1.5-6.31-3-9.14-4.35s-5.46-2.68-7.82-3.93a80.09,80.09,0,0,1-37.73,13.44,120.92,120.92,0,0,1-18.5.17c-6.15-.4-12.27-1.18-18.36-2.07s-12.15-1.91-18.18-2.78-12.19-1.42-18.24-1.63c-12.11-.4-24,.83-35.77,6l5.82-9.49c-6.09,1.15-15.53,1.07-27.39-.05-5.94-.56-12.49-1.36-19.56-2.36l-5.4-.79-5.66-.78q-5.75-.81-11.85-1.75c-8.12-1.25-16.67-2.64-25.55-4.15l-6.72-1.15-6.91-1.09-14.15-2.25-29.28-4.76-30.41-4.44c-40.74-6-82.8-10.47-118.31-12.38-8.82-.58-17.39-.72-25.35-.81s-15.4,0-22.16.24q-5.07.18-9.63.49c-3,.2-5.88.45-8.58.82a92.71,92.71,0,0,0-13.61,2.65l8.07,6c-12.7,7.08-21.76,9.43-29,8.76s-12.53-4.4-17.66-9.33c-10.27-9.8-19.56-24.89-40.81-31.06a67.94,67.94,0,0,1-2,32.67,79,79,0,0,1-13.79,25.32c-11.51,14.42-25.88,23.49-34,26l-.35-10.65a88.1,88.1,0,0,0-10.42,5.46c-3.86,2.32-8.11,5.2-12.61,8.31-9,6.25-19.06,13.68-29.5,21.14L156.42,862.2c-5.37,3.72-10.76,7.31-16.11,10.6s-10.66,6.31-15.87,8.88q-3.91,1.93-7.73,3.52c-1.27.53-2.54,1-3.8,1.49s-2.51.95-3.75,1.37l-2.63-26.55C99,870,89.36,876.4,78.66,881.28A142.47,142.47,0,0,1,62,887.58c-2.86.86-5.74,1.79-8.64,2.61s-5.8,1.6-8.69,2.31c-11.58,2.86-23,4.91-33,6.75-5,.89-9.65,1.85-13.78,2.8a101.1,101.1,0,0,0-10.71,3c-7.13.29-14.89.17-23-.14-4-.15-8.18-.34-12.43-.56l-12.93-.69-13.33-.67c-4.44-.2-8.93-.37-13.48-.49l-6.85-.14q-3.38,0-6.79,0c-4.53,0-9.14.1-13.67.28-18.11.75-35.87,3.09-52.16,8.53-16.13,5.42-30.81,13.91-42.73,27l-30.29-30.08-15-15.07-7.5-7.53-7.39-7.56-2.88,8.86,10,38.53,11.83,44.6,15.83,58.31c23.53,85.85,56.3,202,93.2,323.18s77.89,247.48,117.78,353.62c19.93,53.08,39.58,101.12,58.28,141C43,1865.82,52,1883.75,60.7,1899.23q6.53,11.61,12.79,21.36c4.16,6.48,8.16,12.34,12.08,17.47l7.17,25.58,11.63-7.37c4.72,1.92,8.13,1.37,10.61-.09s4.05-3.84,5.31-5.68c2.52-3.69,3.62-5.16,7.14,7.63l-10.35,1.6-10.63,1.72c17.3,2.51,11.14,19.28,10.12,35.4a44.13,44.13,0,0,1,10.53,1.71,30.16,30.16,0,0,1,10.58,6.12c-.28-10.63-5.41-9.84-9.4-14.62a108.49,108.49,0,0,0,3.52-10.7c.59-2,1.23-4.07,1.86-6.06s1.28-3.91,2-5.68c1.46-3.54,3.18-6.46,5.33-7.94s4.6-1.45,7.72.78c7.3-1,10.54,9.31,14.2,19.48s7.58,20.32,15.55,19.41l7.73-.26c1.27,0,2.61-.09,3.83-.1l3.7,0c2.44,0,5,0,7.34,0l7.06.17c9.19.36,18,.94,25.81,1.92l3,.34c1,.1,1.9.27,2.85.4l5.61.8,5.27.93,2.61.45,2.59.54q5.17,1.06,10.23,2c3.39.62,6.67,1,10.12,1.76,27.07,4.69,53.52,7.71,82,3,2,10.93.37,10.62-.95,15.64a55,55,0,0,1,12.14-6.9l1.5-.61c.51-.18,1-.34,1.55-.5,1-.32,2.06-.62,3.09-.9,2.05-.57,4.1-1.09,6.13-1.63s4.06-1.07,6.08-1.69c1-.31,2-.63,3-1s2.07-.64,3.1-1a48.77,48.77,0,0,0,12.53-6.41c4.67,11.86,5.69,28.15,7,39.24-.63-5.54,4.82-9.6,13.53-12.63,2.18-.76,4.55-1.45,7.08-2.09s5.37-1,8.24-1.4,5.86-.76,8.9-1.06l4.6-.42c1.54-.13,3.17-.13,4.76-.19,6.39-.15,12.82-.13,18.87,0,6.19.37,12,.91,17,1.49,2.51.29,4.82.61,6.87.94s3.95.82,5.47,1.22C511.79,2032.21,513.6,2033,513.73,2033.76Z"/><path class="cls-1" d="M2377.68,2556.67l.71-47.95c11-.7,3.21,54.86,13.39,43,4-67.84,16.91,7,20.43-29-.08,5.39,4.91,7.44,4.59,28.67,1.53-36.83,5.13-8.56,8.27-18,1.14-10.24-.84-11-1.69-22.12l7.2-13c2.82,11.85,3.51,33.53.45,37.53,18.83,13.2,109.21,48.49,129.49,30.1-2.61-27.82-8.87-9-11.25-52.76,5.36-24.52,7.89,8.57,10.26-17.2,2.06,65.05,11.78,15.57,15.84,81.47l1.54-36.86,2.66,22.56c23.58-38.36,5.39-18.72,26.29-10,12.1-5.67,17.85-56.81,24.58-38-1-.38-3.67-23-.53-32.36.53,32.36,8.34-23.23,9.87,9.46,3.07-4.09,13,.08,9.65-44.17,1.69,22.07,10.56,31.13,5.28,50.3,3,1.3,5.89,7.82,8-2l-3.84-12.34c10.11-6.43,15.62,27.83,22.2-12.2l-3.74-17.59c6-2.8,11.1-6.11,13.47,37.66l-6.21,13.46c10-1.13,16.07-4,24.42-27.31l-3-1.2c10.64-43.73,66.32-79.85,76.13-134.62l-4.52-34,8.43-28.61c-1-.41-4.07,110.35-4.91,99.26,18.07-3.16,112.07-29.53,128.76-6.62,6.73,18.83,1.21,54,1.14,59.33,8.19-12.68,3.54-36,10.5-33.12,1.9,6.13-.39,26.65-1.46,31.49,3.05-4,5.89,7.75,6.12-8.13-3.82-12.32-2.2-54.46-3.82-81.84l9,3.65-.4,26.62c2,.8,5.07-72.77,13.87-58.46,14.85,11.51,31,2.18,45.92,8.35-.23,16-3.37,25.39-6.51,34.75,2,.82,5.05-3.27,6.9,8.2-3.61-28.2,6.27-18.78,3.45-30.66,10.94-65.05,25.09-5.64,34.75-49.79.84-58.51,20.68-1005,20.68-1074.61,3,1.26,6,2.52,6.9,8.25-.77-16.36-6.67-24.17-9.8-14.81l-.54,37.28c-7.21,13.08-1.69-22.13-8.72-19.61-.37-30.5,6.1-37,11.8-40-5.13-3.55-10.25-25.78-12.34,7.61-4.82-12.7.54-37.28-5.27-50.33-4.14,9-9.57,38.83-14.33,20.78l.08-5.38c-11.56-31.49-17.69,46.26-28.25,15.12l1.14-10.2c-3.73-17.65-11.08,6.07-17.82-12.76,1.92,6.15,3.59,28.22-.46,31.86-7.74-19.24-13,0-18.69-23.76l-5.43,29.87c-27-5.83-133.44,36.64-160.52,41.41l1.06-4.78c-41.26,14.93-126,12.61-168.61,53.77-6.59-29.4-15.69-22.48-22.57-30.71,3.83,12.26,2.52,33.12-.47,31.92-21-3.38-1.41,20.33-22.62,32.9-24.41,27.35-117.85-3.78-139.52-28.84-11.64,43.34-26.17,10.56-37.58,38l1.15-10.22c-12.25,16.32-81.59-23.85-95.82-8.35l1.91,6.2c-12.41,26.92-10.72-20.51-20.51-35.29,1.29,48.64-9.35,76.24-13.41,79.92l.15-10.64c-6.12,8.19-20,50.44-30.08,57l.4-26.62c-8.43,28.59-24.27,16.71-30.32,19.51-13.85-11-35.21-57.34-53.73-22.18l-12-75.83-1.75,7.53s-19.27,915.8,5.19,1110.86l-.39,26.54,4.84-3.43c5.8,13.08,8.49-17.71,8.09,8.8l-7.95-3.24c5.83,7.69,1.76,21.77-.47,36.8,2.43,2.56,4.8,5.76,6.73,13.9,1.15-10.21-.84-11-1.75-16.79,3.14-9.36,7.5-34.32,11.32-22.07,6,2.5.38,43,7.35,45.89,36.74,20.54,72.33,51.33,109.46,45.34.84,11-.16,10.62-1.23,15.57,11.19-11.47,21.13-7.32,31.31-19.2,2.83,11.88,3.6,28.25,4.44,39.28C2318.84,2552.93,2376.77,2550.91,2377.68,2556.67Z"/><path class="cls-1" d="M1414.33,1113.29c4.49,3.63,12.56,4.4,20.18,5.38C1428.81,1115.12,1422.62,1113.37,1414.33,1113.29Z"/><path class="cls-1" d="M1434.66,1118.76l.12,0-.27,0Z"/><path class="cls-1" d="M1805.28,1145.27l1.36-5.55c18.19.51,5.08,6.57,21.94,5.73,6.83-7.7,27.9,1.73,33.85-2.29-.15.62,8.07,1.13,7.48,3.59,2.65-4.22,8.5-.72,13.72-1.66,1.92-1.14-1.34-1.32-2.71-2.66l11.94-1.19c4.61,1.51,5.68,4.07.61,4.4,7.76.59,22.9,1.55,41.78,2.62s41.48,2.33,64.18,3.23,45.46,1.8,64.66,2.31,34.82.53,43.2.14c-4.25-3.31-14.63-1.28-18.47-6.44,8.9-2.72,13,1.2,17-1.74,3.28,7.64,19.43,2.12,26,9.91l2.6-4.26,4.36,2.7c19.51-1.94,21.74-2.45,23.41-2.28s2.78,1,20,1.7c20-.46,29.55-6.34,40.65-4-1.65-.06-6-2.74-.85-3.78.85,3.78,13.8-2.57,16.29,1.26,5.07-.43,21.49.22,16-5,2.77,2.62,17.41,3.77,8.67,6,4.94.17,9.73,1,13.29-.17l-6.34-1.47c16.7-.68,25.78,3.36,36.67-1.27l-6.16-2.08c10-.28,18.33-.64,22.23,4.49l-10.25,1.53c16.56-.06,26.54-.36,40.34-3l-4.92-.16c8.79-2.45,36.17-4.9,63.36-7.41,13.6-1.26,27.15-2.57,38.3-4s19.93-3,24-4.59l-7.47-3.91,13.89-3.44c-1.65,0-6.64,12.92-8,11.64l41.9-.95,31.16-.68,34-.83c23-.54,45.87-1,64.75-1.14s33.74-.23,40.64.31c11.15,2,2.11,6.26,2,6.89,13.5-1.73,5.76-4.31,17.26-4.18,3.15.66-.59,3.12-2.35,3.72,5-.56,9.73.73,10.08-1.13-6.33-1.32-3.76-6.29-6.49-9.43l14.79.15L2719,1130c3.3,0,8.19-8.62,22.74-7.27,24.52.75,51.11-1,75.75-.85-.33,1.87-5.48,3.09-10.64,4.31,3.31,0,8.33-.58,11.41.68-6-3.15,10.28-2.44,5.59-3.71,17.84-8,41.36-1.86,57.13-7.46.6-3.43,8.24-33,15.65-62.69s14.58-59.57,14.45-63.63c4.91,0,9.79,0,11.32.63-1.33-1.87-11-2.49-16.09-1.25l-.75,4.37c-11.75,1.88-2.84-2.5-14.34-1.86-.72-3.54,9.84-4.61,19.16-5.23-8.41-.16-16.85-2.51-20.15,1.49-7.94-1.25.74-4.37-8.81-5.61-6.74,1.25-15.53,5-23.36,3.12l.12-.63c-19-3.12-28.78,6.29-46.15,3l1.83-1.23c-6.16-1.91-18.11,1.14-29.18-.79,3.16.64,6,3.15-.66,3.73-12.72-1.94-21.31.51-30.63-2l-8.81,3.7c-11,.14-30.19.6-53.41,1.43l-77.82,2.84c-27.3.93-54.61,2-77.87,2.73S2493,999,2482,999.25l1.73-.57c-8.44.28-18,.53-28.39.77s-21.62.36-33.42.53l-75.36,1c-25.92.27-51.91.63-75.79,1.2s-45.65,1.13-63.12,2.18c-10.76-3.54-25.67-2.88-36.92-3.95,6.25,1.49,4.07,3.9-.82,3.72-34.33-.92-2.35,2.34-37.09,3.27-10,.64-27.08.75-47.6.49s-44.51-1.09-68.34-2c-11.92-.47-23.8-1-35.19-1.53s-22.3-1.23-32.27-1.84c-19.94-1.24-36.13-2.45-45-3.41-19.21,4.6-42.88-.09-61.66,2.53l1.92-1.13c-5,.31-15.89,0-29.71-.57-6.91-.3-14.56-.67-22.6-1.08l-24.89-1.45c-16.88-1-33.87-2-48.09-2.7-7.11-.35-13.53-.62-18.91-.78s-9.7-.25-12.62-.14l3.1.86c-20.45,2.25-17.45-3.16-33.38-5.58,1.86,5.76-15.69,8.22-22.35,8.36l.31-1.23c-10.05.51-33,4.49-49.55,4.38l.79-3.07c-14,2.65-39.82,0-49.75-.18-22.62-2.33-57.26-9.71-87.78-7.27l-19.07-9.91-2.91.72a344.14,344.14,0,0,0-14,55.58c-4.59,29.34-4.36,61.81,15.16,74.28l-.82,3.06,8,0c9.48,2.05,14.1-1.29,13.28,1.76l-13.08-1.1c9.56,1.43,2.76,2.7-1,4.24a55.21,55.21,0,0,1,11,2.23c2-1.09-1.32-1.36-2.78-2.11,5.23-.81,12.59-3.32,18.81-1.54,9.83.83.35,5,11.82,6,30.22,2.94,60,5.81,89.84,8.42,14.93,1.27,29.89,2.55,44.95,3.45s30.22,1.69,45.55,2.19c1.34,1.34-.32,1.23-2.12,1.73,9.26-.26,18-.1,26.51.06s16.84.29,25.27-.1a14.41,14.41,0,0,1,7.14,4.86c-1.34-1.34,21.91-1.15,45.68-.55,11.88.3,23.9.73,33,1.08S1804.9,1145.09,1805.28,1145.27Z"/><path class="cls-1" d="M2225.81,1305.09c1.86,3.42,5.2,3.82,8.36,4.46C2231.8,1306.26,2229.24,1304.79,2225.81,1305.09Z"/><path class="cls-1" d="M2234.23,1309.62l.05,0-.11,0Z"/><path class="cls-1" d="M2852.4,1172.56l-2.61.15A5.45,5.45,0,0,0,2852.4,1172.56Z"/><path class="cls-1" d="M2387.47,1322.85l.61-5.58c7.52.09,2,6.45,9,5.23,2.9-7.85,11.52,1.08,14-3.06-.07.63,3.33.94,3.06,3.42,1.14-4.27,3.52-.92,5.69-2,.81-1.18-.54-1.3-1.09-2.61l5-1.4c1.89,1.43,2.31,4,.21,4.38,12.81,1.83,74.4,7.36,88.29,5.54-1.7-3.29-6-1.19-7.53-6.33,3.72-2.78,5.36,1.12,7-1.85,1.23,7.62,8,2,10.59,9.75l1.15-4.27,1.76,2.67c16.2-4.11,3.73-2.1,18-.76,8.27-.47,12.33-6.35,16.88-4-.68-.06-2.44-2.73-.28-3.78.28,3.78,5.76-2.58,6.71,1.26,2.11-.43,8.88.21,6.7-5,1.09,2.6,7.12,3.8,3.47,5.95,2,.2,4,1,5.5-.1l-2.59-1.5c6.92-.59,10.58,3.49,15.18-1.08l-2.5-2.11c4.13-.23,7.59-.54,9.09,4.6l-4.27,1.47c6.84,0,11-.22,16.74-2.8l-2-.19c7.38-4.93,45.47-8.28,52.31-14.51l-3-4,5.83-3.2c-.68-.06-3.07,12.81-3.61,11.5,12.34-.09,76.56-1.69,87.89,1.24,4.55,2.3.68,6.31.62,6.94,5.63-1.35,2.51-4.15,7.26-3.7,1.28.74-.34,3.1-1.08,3.65,2.09-.42,4,1,4.2-.85-2.57-1.5-1.36-6.39-2.39-9.61l6.11.57-.34,3.1c1.36.13,3.65-8.41,9.62-6.6,10.11,1.58,21.14.74,31.32,1.69-.2,1.86-2.37,2.91-4.54,4,1.36.13,3.46-.3,4.69,1.06-2.39-3.35,4.33-2.09,2.44-3.52,7.64-7.42,17.14-.27,23.85-5.26.73-6.81,16.8-116.9,17-125,2,.19,4.07.39,4.68,1.07-.48-1.92-4.49-2.92-6.65-1.88l-.47,4.34c-5,1.41-1.09-2.61-5.9-2.42-.17-3.56,4.26-4.22,8.16-4.48-3.49-.49-6.92-3.17-8.44.7-3.26-1.56.47-4.34-3.47-6-2.85,1-6.64,4.38-9.83,2.2l.07-.63c-7.8-3.85-12.19,5.12-19.32,1.32l.8-1.17c-2.5-2.12-7.58.53-12.12-1.77,1.29.75,2.38,3.35-.4,3.71-5.23-2.36-8.89-.2-12.69-3.06l-3.79,3.4c-18.38-1.1-91.16,2.19-109.66,2.32l.74-.54c-28.2,1.1-86-.5-115.21,3.63-4.42-3.53-10.65-2.87-15.32-3.94,2.58,1.49,1.63,3.9-.41,3.72-14.3-.72-1,2.35-15.52,3.48-16.73,2.81-80.42-2.28-95.14-5.55-8.06,4.87-17.89.82-25.75,3.84l.81-1.17c-8.4,1.71-55.62-4.06-65.37-2.47l1.29.75c-8.54,2.95-7.26-2.56-13.9-4.44.75,5.69-6.59,8.75-9.37,9.11l.13-1.24c-4.2.86-13.77,5.57-20.68,6.17l.34-3.1c-5.83,3.2-16.61,1.57-20.75,1.8-9.42-1.5-23.87-7.24-36.61-3.43l-8-9-1.22.85s-15.6,106.51.57,129.65l-.34,3.09,3.31-.32c3.92,1.62,5.84-1.93,5.5,1.15l-5.42-.5c4,1,1.14,2.57-.42,4.28a11,11,0,0,1,4.56,1.73c.81-1.17-.55-1.3-1.15-2,2.17-1,5.21-3.89,7.78-2.4,4.07.39.14,5,4.89,5.47,25,3,49.22,7.12,74.58,7,.55,1.3-.14,1.24-.88,1.8,7.67-1.16,14.44-.52,21.42-1.75,1.9,1.43,2.38,3.35,2.92,4.65C2347.31,1321.49,2386.85,1322.16,2387.47,1322.85Z"/><path class="cls-1" d="M2115.94,1212.62c2.72,3.57,7.79,4.24,12.58,5.14A16.5,16.5,0,0,0,2115.94,1212.62Z"/><path class="cls-1" d="M2128.61,1217.84l.08,0-.17,0Z"/><path class="cls-1" d="M2362.17,1241.21l1-5.55c11.48.44,3,6.54,13.72,5.64,4.51-7.72,17.59,1.61,21.45-2.42-.11.62,5.07,1.1,4.64,3.56,1.78-4.22,5.39-.75,8.71-1.71,1.24-1.15-.82-1.32-1.65-2.65l7.57-1.21c2.88,1.5,3.5,4.05.29,4.39,4.89.58,14.44,1.5,26.34,2.53s26.16,2.23,40.48,3.15,28.68,1.8,40.8,2.31,22,.59,27.29.21c-2.63-3.32-9.22-1.31-11.55-6.48,5.67-2.71,8.2,1.23,10.75-1.71,1.93,7.65,12.23,2.15,16.26,10L2570,1247l2.71,2.71c24.71-3.82,5.67-2,27.45-.47,12.64-.39,18.76-6.22,25.73-3.87-1-.07-3.77-2.76-.48-3.79.48,3.79,8.75-2.52,10.27,1.33,3.21-.41,13.57.3,10.16-4.93,1.71,2.63,10.94,3.84,5.39,6,3.12.2,6.13,1,8.39-.1l-4-1.5c10.55-.58,16.23,3.51,23.17-1.06l-3.86-2.11c6.3-.23,11.57-.53,14,4.62l-6.49,1.47c10.45,0,16.76-.2,25.51-2.78l-3.11-.19c5.58-2.42,22.89-4.63,40.08-6.93,8.59-1.16,17.16-2.36,24.21-3.66s12.6-2.78,15.16-4.36l-4.68-4,8.79-3.3c-1-.05-4.31,12.86-5.17,11.56l67.58-1.36c14.5-.27,28.95-.43,40.86-.38s21.29.23,25.64.87c7,2.14,1.31,6.28,1.23,6.91,8.53-1.54,3.65-4.23,10.91-3.95,2,.7-.38,3.11-1.49,3.69,3.18-.49,6.14.86,6.37-1-4-1.41-2.35-6.34-4.06-9.52l9.33.36-.38,3.11c2.08.07,5.19-8.51,14.37-6.95,15.47,1.14,32.24-.18,47.79.34-.21,1.86-3.46,3-6.72,4.14,2.09.07,5.26-.45,7.2.86-3.81-3.24,6.49-2.28,3.53-3.62,11.26-7.75,26.1-1.14,36-6.47.37-3.42,5.18-32.83,9.81-62.4s9.09-59.3,9-63.35c3.08.09,6.15.18,7.11.83-.84-1.89-6.91-2.69-10.1-1.53l-.46,4.36c-7.37,1.67-1.79-2.55-9-2.12-.46-3.55,6.18-4.44,12-4.89-5.28-.31-10.58-2.81-12.65,1.13-5-1.39.46-4.36-5.53-5.77-4.23,1.13-9.74,4.72-14.66,2.71l.08-.63c-11.93-3.45-18.07,5.77-29,2.26l1.15-1.21c-3.86-2-11.37.86-18.31-1.24,2,.69,3.73,3.24-.42,3.72-8-2.14-13.38.18-19.22-2.52l-5.54,3.56c-6.92,0-18.95.18-33.53.68l-48.86,1.83-48.9,1.84c-14.6.47-26.66.84-33.62.95l1.09-.55c-5.3.2-11.3.36-17.82.5s-13.57.19-21,.27l-47.31.44c-16.27.12-32.6.33-47.6.77s-28.68,1-39.66,1.93c-6.7-3.58-16.07-3-23.12-4.09,3.9,1.51,2.49,3.92-.58,3.71-21.54-1-1.51,2.33-23.35,3.2-6.3.62-17,.7-29.91.41s-27.94-1.1-42.89-2c-7.48-.47-14.93-1-22.08-1.52s-14-1.18-20.23-1.78c-12.5-1.19-22.65-2.37-28.18-3.31-12.17,4.62-26.94.07-38.8,2.75l1.23-1.14c-3.17.33-10,.09-18.66-.44-4.34-.27-9.14-.61-14.18-1l-15.61-1.3c-21.17-1.8-42.6-3.56-50-3.11l1.93.83c-12.92,2.41-10.88-3-20.83-5.31,1,5.74-10.11,8.34-14.3,8.53l.23-1.23c-6.34.59-20.87,4.74-31.3,4.81l.59-3.07c-8.86,2.79-25.06.38-31.3.32-14.16-2.12-35.72-9.06-55-6.26l-11.66-9.67-1.86.75a529.4,529.4,0,0,0-10.76,55.66c-3.92,29.35-4.91,61.77,7,74l-.62,3.06,5.05-.05c5.93,1.94,9-1.46,8.34,1.6l-8.24-.94c6,1.31,1.65,2.66-.78,4.25a23.16,23.16,0,0,1,6.89,2.1c1.28-1.11-.79-1.34-1.69-2.08,3.34-.87,8.08-3.46,11.95-1.76,6.19.72.05,5,7.28,5.87,19,2.55,37.75,5.16,56.56,7.47s37.7,4.11,57.06,4.85c.81,1.33-.24,1.23-1.39,1.74,11.73-.69,22.06.44,32.74-.42,2.87,1.53,3.58,3.48,4.38,4.81-.81-1.33,13.88-1.28,28.89-.82,7.5.23,15.09.58,20.85.89S2361.93,1241,2362.17,1241.21Z"/><path class="cls-1" d="M2861.25,1068.67c1.39,3.1,2.17,3.2,3,3.54C2862.77,1069.28,2861.83,1068.1,2861.25,1068.67Z"/><path class="cls-1" d="M2864.26,1072.27v0l0,0Z"/><path class="cls-1" d="M2898.41,1071.23l-1.74-5.32c1.49-.61,2.55,5.89,3.5,4.09-2.07-7.66,2.6,0,1.69-4.18.2.6,1,.58,1.75,2.93-1.22-4.12.37-1.19.44-2.38-.24-1.18-.55-1.17-1.1-2.35l.48-1.78c.85,1.16,1.8,3.51,1.53,4.1,3.09.55,17-.13,19-3.23-1.5-2.9-1.59-.53-3.7-5.18-.28-3,1.43.53.69-2.41,3,7,2.24,1.09,5.53,8.07l-1.32-4.1,1.3,2.32c1.63-5.41,0-2.31,3.18-2.47,1.42-1.26,0-7.12,1.75-5.43a7.43,7.43,0,0,1-1.44-3.49c1.44,3.49.15-3,1.74.51.24-.61,1.77-.67-.57-5.31,1.17,2.31,2.75,2.82,2.86,5.19.46,0,1.13.53,1-.64l-1-1.13c1.09-1.24,3.3,2.18,2.47-2.51l-1.26-1.71c.69-.63,1.23-1.25,3.44,3.36l-.26,1.79c1.31-.66,2-1.3,2.12-4.27l-.45,0c-.45-5.31,5.39-12.23,4.22-18.68l-2.11-3.42-.17-3.54a2.16,2.16,0,0,0,.14.52l.47,1.36,1.45,4a44.2,44.2,0,0,1,1.72,5.05c2.27-1.32,13.46-9.38,16.7-7.92,1.76,1.63,2.67,5.7,2.91,6.28.49-1.83-1.21-4.06-.16-4.15a10.42,10.42,0,0,1,1.28,3.45c.22-.61,1.14.49.43-1.22-1.08-1.1-2.84-5.69-4.33-8.53l1.34-.12,1.19,2.87c.3,0-2.75-8.06-.93-7,2.48.37,4.13-1.56,6.37-1.77a9.91,9.91,0,0,1,.81,4.08c.3,0,.5-.64,1.29.47-1.82-2.79-.08-2.36-1-3.46-1.69-7.56,3-2.08,2.11-7.33l-24.48-57.2c-11.64-27.09-23.44-54.28-25.13-58a1.12,1.12,0,0,1,1.18.52c-.89-1.69-1.93-2.22-1.83-1.07l1.75,4c-.18,1.76-1.27-2.26-1.94-1.63-1.52-3.22-1.11-4.24-.61-4.84-.75-.11-2.4-2.21-1,1.44-1.16-1.1-1.75-4-3-5.07,0,1.16.8,4.61-.6,2.94l-.25-.58c-2.81-2.76.24,5.83-2.45,3l-.36-1.14c-1.26-1.69-1,1.2-2.61-.47.51.56,1.75,2.83,1.46,3.42-1.79-1.66-1.47.65-3.23-1.6l.8,3.46c-3.3.73-13.46,10.49-16.4,12.27l-.09-.57c-4.07,3.59-13.93,7.27-17.18,13.64-2-2.9-2.77-1.74-3.92-2.32,1,1.16,1.68,3.49,1.28,3.5-2.6.56.68,2.28-1.29,4.59-1.73,4.11-14.06,4.76-17.59,2.89.33,5.26-2.68,2.25-3,5.75l-.26-1.17c-.83,2.33-10.59.72-11.7,3l.46.61c-.48,3.47-2-1.84-3.75-3.09,1.95,5.33,1.69,8.81,1.34,9.38l-.37-1.18c-.43,1.15-.55,6.39-1.54,7.5l-.92-3c0,3.5-2.33,2.8-3,3.35-2.07-.67-6.28-5-7.28-.41l-4.08-8,.05.9s7.35,25.69,15.88,54,18.26,59.21,23.33,69.54l.87,3,.55-.59c1.26,1.2.55-2.34,1.42.63l-1.21,0c1.07.6,1,2.35,1.22,4.12a3,3,0,0,1,1.42,1.25c-.2-1.19-.5-1.19-.83-1.79.11-1.18-.16-4.15.79-2.95.91,0,1.56,4.77,2.63,4.79,5.81.68,11.88,2.49,16.8.1a3,3,0,0,1,.4,1.78c1.13-1.79,2.66-1.78,3.63-3.58a26.17,26.17,0,0,1,2.08,4.13C2890.13,1073.61,2898.07,1070.66,2898.41,1071.23Z"/><path class="cls-1" d="M2858.44,1014l5.15,2.18c-.81,2.31-6.22-1.66-5.75,1,7.06,3.69-2.13,3.21,1.51,5.46-.58-.24-1.2.7-3.49-.25,3.89,1.86.52,1.42,1.29,2.47,1,.67,1.27.29,2.54.58l.84,2c-1.51.09-3.93-.68-4.12-1.48-2.94,3.34-13.93,20.7-13.45,25.7,3.24.59,1.67-1.48,6.64-.2,2.27,2.11-1.55,1.3,1.09,2.83-7.27-2.21-2.61,1.82-10.14,0l3.92,1.81-2.67-.36c2.38,6.47,1.62,1.87-.92,5.89-.3,2.76,4.87,6,2.29,6.65a5,5,0,0,1,3.59,1.18c-3.59-1.18,1.92,2.66-1.79,1.68.22.8-1,2.71,4.11,3.76-2.55-.53-4.21,1-5.92-.9-.37.57-1.3.92-.39,1.76l1.64-.31c0,2.36-4.22,2.16-.32,5.11l2.21-.09c-.14,1.37-.16,2.55-5.14,1.33l-1-1.82c-.63,2.14-.76,3.51,1.18,6.17l.35-.58c4,3.94,3.89,16.94,9.24,21.07l4.07.36,2.55,2.85a10.54,10.54,0,0,0-1.79-.87l-3.94-1.71c-2.82-1.21-5.5-2.37-4.85-2.25-1,3.89-4.78,24.47-8.44,27.12-2.55.71-6.05-1.74-6.64-2,.83,2.19,3.74,2.07,2.93,3.42-.81.17-2.92-1.07-3.38-1.47.23.79-1.27.95.47,1.58,1.63-.35,6.18,1.55,9.33,2.22l-1,1.74-2.92-1.06c-.23.39,7.7,3.73,5.51,5-2.29,2.68-2.37,6.39-4.08,9.29a7.25,7.25,0,0,1-3.41-2.62c-.23.39,0,1.18-1.38,1.15,3.38.27,1.65,2,3.16,1.83,6.47,4.63-1.07,5.45,3.17,9.06l58.5,21.26c27.73,10.05,55.63,20.08,59.5,21.31-.33.55-.66,1.09-1.36,1.07,1.87.43,3.11-.46,2.27-1.41l-4.11-1.44c-1-1.89,2.57.45,2.74-1,3.41,1,3.72,2.53,3.69,3.76.72-.89,3.52-1.1-.06-2.71,1.72-.5,4.11,1.44,5.93.76-.73-1.14-3.7-3.28-1.4-3.57l.59.21c4.23-1.14-4-5.16.13-6.12l1.06.59c2.2-.1,0-2.4,2.57-3-.81.15-3.36-.32-3.5-1.25,2.63-.83.84-2.57,3.84-2.82l-3-2.16c2.38-5.09,4.77-27.65,6.14-33.15l.45.39c1.16-8.69,7.3-25.21,5.87-35.2,3.69-.12,3.58-2.17,5-3.19-1.62.26-3.81-.84-3.46-1.38,1.89-4-2.12-1.09-2-5.76-1.26-5.91,9.06-22.93,13.42-26.08-3.86-4.09.82-5.54-1.3-8.92l1,.66c-.86-3.09,8.8-14.86,8.23-18.28l-.82.1c-2-3.57,3.06-1.2,5.42-2.45-5.37-1.86-7.53-5.12-7.61-6.07l1.14.49c-.41-1.54-3.91-6.08-3.81-8.33l2.85,1.24c-2.43-2.89.11-5.45.29-6.75,2.28-2.22,9-4.29,6.68-9.44l9.13,1.07-.67-.67s-24.28-11.17-51.43-22.88-57.16-23.9-68.7-25.76l-2.83-1.27,0,1.14c-1.9.6,1.19,2.52-1.63,1.26l1-1.48c-1.32.85-2.5-.61-3.93-1.74a3.15,3.15,0,0,1-2.07.76c1,.69,1.26.32,2,.39.74,1.06,3.07,3.06,1.42,3.3-.77,1.11-4.67-1.83-5.57-.54-5.31,6.62-11.63,12.6-14,20.53-1.26-.3-1.14-.49-1.58-.93.32,2.81-1,4.68-.5,7.29a17.86,17.86,0,0,1-4.62-.77C2863.64,1002,2859.12,1014,2858.44,1014Z"/><path class="cls-1" d="M264.5,806.34c-1.4-3.31-3.55-3.54-5.59-4C260.61,805.49,262.33,806.82,264.5,806.34Z"/><path class="cls-1" d="M258.86,802.26l0,0,.07,0Z"/><path class="cls-1" d="M160.62,797.2l0,5.6c-4.78.31-1.69-6.33-6.05-4.74-1.36,8-7.39-.48-8.72,3.8,0-.63-2.17-.77-2.15-3.25-.46,4.32-2.18,1.1-3.5,2.26-.44,1.22.42,1.27.85,2.54l-3.06,1.66c-1.29-1.32-1.71-3.84-.4-4.36-8.25-1.16-47.7-3.46-56.4-.93,1.28,3.19,3.9.88,5.16,5.93-2.2,3-3.47-.84-4.36,2.2-1.24-7.54-5.2-1.58-7.31-9.19l-.47,4.33-1.27-2.58c-10,4.93-2.24,2.29-11.36,1.68-5.22.89-7.45,7-10.47,4.9.44,0,1.71,2.61.4,3.76-.4-3.76-3.5,2.87-4.33-.91-1.31.54-5.65.24-4,5.33-.85-2.54-4.74-3.43-2.55-5.76-1.31-.1-2.6-.8-3.48.38l1.73,1.37c-4.36.94-6.92-3-9.57,1.84L31,815c-2.61.44-4.79.92-6-4.14l2.63-1.69c-4.34.32-7,.77-10.46,3.64l1.3.08C14,818.24-10,823.48-14,830l2.13,3.88-3.52,3.49c.44,0,1.23-12.94,1.65-11.66-7.83.7-48.51,5.43-55.85,3-3-2.08-.77-6.27-.76-6.9-3.5,1.62-1.37,4.26-4.41,4-.85-.68.05-3.11.49-3.7-1.31.52-2.59-.8-2.62,1.05,1.71,1.37,1.2,6.31,2,9.48l-3.91-.27.05-3.11c-.87-.06-1.87,8.57-5.76,7-6.5-1.1-13.46.25-20-.23,0-1.86,1.35-3,2.68-4.16-.87-.06-2.18.46-3-.84,1.69,3.23-2.64,2.29-1.36,3.63-4.47,7.76-10.86,1.05-14.87,6.35-.1,6.83-4.8,117.5-4.53,125.62-1.32-.1-2.63-.2-3.05-.85a2.84,2.84,0,0,0,4.35,1.57l.08-4.35c3.1-1.64.83,2.55,3.9,2.15.29,3.55-2.51,4.41-5,4.85,2.26.33,4.59,2.84,5.36-1.08,2.16,1.4-.08,4.35,2.52,5.78,1.77-1.11,4-4.68,6.18-2.65v.63c5.19,3.49,7.54-5.67,12.29-2.21l-.45,1.21c1.71,2,4.82-.89,7.85,1.19-.87-.69-1.69-3.23.06-3.72,3.47,2.12,5.7-.21,8.28,2.46l2.24-3.57c11.82.24,58.15-6.55,69.94-7.62l-.44.58c17.95-2.48,54.93-3.8,73.31-9.43,3,3.3,7,2.32,10,3.14-1.73-1.35-1.27-3.81,0-3.73,9.16,0,.51-2.4,9.69-4.28,10.51-3.66,51.39-1.9,61,.58,4.84-5.28,11.35-1.76,16.17-5.19l-.44,1.21c5.25-2.15,35.67,1.11,41.78-1l-.87-.68c5.26-3.39,4.78,2.17,9.12,3.69a9,9,0,0,1,5.4-9.59v1.24c2.62-1.08,8.42-6.29,12.78-7.26l0,3.11c3.51-3.51,10.47-2.45,13.09-2.9,6.09,1,15.64,6,23.51,1.47l5.63,8.59.72-.91s3.29-107.12-8.44-129.35l0-3.1-2.08.5c-2.6-1.4-3.59,2.24-3.57-.86l3.48.21c-2.58-.78-.89-2.5,0-4.3a5.68,5.68,0,0,1-3-1.48c-.44,1.21.43,1.27.86,1.92-1.31,1.16-3.07,4.16-4.8,2.81-2.61-.17-.4-5-3.45-5.2-16.1-1.63-31.75-4.48-47.86-3-.43-1.27,0-1.24.45-1.84-4.8,1.57-9.15,1.29-13.51,2.88-1.3-1.33-1.72-3.22-2.15-4.49C186.22,796.43,161,797.86,160.62,797.2Z"/><path class="cls-1" d="M193,1578.57c-2.21-3.06-5.22-2.88-8.11-3C187.67,1578.42,190.13,1579.43,193,1578.57Z"/><path class="cls-1" d="M184.87,1575.55l0,.05h.1Z"/><path class="cls-1" d="M65.41,1607.26l2.07,5.21c-4.82,2.36-4.15-5.12-8-1.77.84,4-1.08,4.67-3.16,4.92s-4.28.05-4.12,2.31c-.24-.58-2.45.21-3.39-2.09,1.2,4.19-1.72,1.93-2.56,3.55,0,1.31.9,1,1.82,2l-2.35,2.81c-1.77-.68-3.16-2.83-2.08-3.86-8.51,2.38-48,16.73-55.5,22.72,2.49,2.41,4.15-.82,7.35,3.3-1,3.65-3.72.68-3.41,3.86-4.14-6.43-5.7.72-10.71-5.4l1.22,4.18-2.25-1.84c-7.9,8.75-1.3,3-10.46,6.31-4.76,3-4.57,9.54-8.33,8.91.44-.16,2.69,1.68,1.86,3.3-1.86-3.3-2.31,4.11-4.59,1-1.07,1-5.43,2.59-1.79,6.58-1.82-2-6-1.16-4.74-4.24-1.31.46-2.85.36-3.26,1.82l2.22.53c-3.89,2.7-7.92.19-8.64,5.72l2.44,1.1c-2.38,1.5-4.32,2.86-7.52-1.27l1.91-2.66c-4.12,2.12-6.5,3.63-8.8,7.76l1.3-.47c-2.23,6.73-23.62,21.66-24.95,29.38l3.6,2.67-2.07,4.7c.44-.16-3.87-12.42-3-11.42-7.37,3.95-45.23,25.51-53.35,26.44-3.76-.63-3.23-5.43-3.47-6-2.78,3,.34,4.5-2.71,5.58-1.1-.26-1.18-2.88-1-3.61-1.07,1-2.84.36-2.14,2.08,2.21.53,3.67,5.29,5.72,7.85l-3.92,1.41-1.18-2.88c-.87.31,1.56,8.67-2.83,8.92-6.77,1.76-13,6-19.57,8.3-.71-1.72.12-3.34,1-5-.88.31-1.94,1.35-3.29.52,2.93,2.25-1.67,3.23.11,3.91-1.28,9-10.18,5.61-12,12.18,2.6,6.32,42.08,109.86,45.59,117.18-1.31.47-2.62.93-3.29.51a3.05,3.05,0,0,0,4.83-.4l-1.66-4c2.34-2.82,1.82,2,4.63.32,1.69,3.13-.67,5.11-2.9,6.56,2.32-.65,5.57.66,4.76-3.27,2.65.37,1.66,4,4.74,4.24,1.27-1.77,2-6,4.93-5.05l.24.58c6.41,1,5-8.4,11-7.24l0,1.3c2.45,1.11,4.31-2.85,8.07-2.22-1.11-.26-2.92-2.25-1.42-3.44,4.2.48,5.43-2.6,9-1.24l.76-4.23c11.53-4.78,53.78-30.53,64.83-36.45l-.2.71c16.45-9.82,51.88-26.51,67.58-39.37,4.23,1.77,7.68-.77,11-1.28-2.21-.52-2.72-3-1.41-3.45,8.91-3.84-.44-2.42,7.77-8,8.8-7.76,49.32-23.16,59.62-24.86,2.68-6.89,10.37-6.34,13.63-11.44l0,1.3c2.07-2,10.69-5.4,19-8.42s16.53-5.79,18.83-7.7l-1-.37c3.47-4.87,4.94.54,9.17.69-2.59-5.08.2-9.67,1.55-10.61l.39,1.18a47.59,47.59,0,0,0,3.82-5.06c1.52-2.07,3.28-4.23,5-5.22l.86,3c1-2.08,3.07-3.28,5.15-4.09s4.12-1.08,5.17-1.57a26.6,26.6,0,0,1,4.58.3c1.67.21,3.46.35,5.21.48a16.49,16.49,0,0,0,5.16-.43,9.62,9.62,0,0,0,4.59-2.47c1.94,2.59,3.77,5.34,5.54,8l.42-1-1.81-17c-1.12-10.33-2.6-24.35-4.4-39s-4-30-6.78-42.95-6.41-23.43-11-28.43l-.3-3.09-2.79.88c-3.69-.86-4.52,3-4.91-.08,1.57-.18,3.11-.4,4.7-.54-3.57-.23-1.53-2.32-.5-4.27a9.55,9.55,0,0,1-4.3-.82c-.45,1.31.75,1.16,1.41,1.71-1.65,1.45-3.59,4.82-6.11,3.88-3.54.45-1.31-4.88-5.43-4.27-11,1.26-21.56,2.8-31.8,4.93a146.11,146.11,0,0,0-29.21,9.06c-.9-1-.38-1.18-.05-1.94-5.17,3.48-10.19,5.09-14.56,8.47-1.9-.69-3-2.28-3.94-3.28.46.5-.93,1.65-3.27,3.08s-5.5,3.15-8.8,4.79-6.51,3.21-9,4.33A19.84,19.84,0,0,1,65.41,1607.26Z"/><path class="cls-1" d="M-143.84,1543.31l5.55-.76c.93,4.52-6,2.52-3.9,6.45,8.09.18.5,7.1,4.91,7.78-.62.08-.47,2.18-2.93,2.49,4.34-.15,1.38,1.93,2.7,3,1.26.26,1.21-.57,2.41-1.16l2,2.7c-1.16,1.41-3.6,2.14-4.28,1,0,2,.09,5.89.36,10.69s.71,10.54,1.13,16.29,1,11.48,1.71,16.29,1.37,8.69,2.23,10.7c3-1.57.49-3.82,5.38-5.59,3.16,1.78-.49,3.42,2.63,3.94-7.37,2-1.06,5.16-8.41,8H-128l-2.44,1.49c5.89,9.09,2.54,1.9,2.76,10.7,1.35,4.91,7.59,6.47,5.81,9.57,0-.42,2.44-1.89,3.71-.74-3.71.74,3.17,3.1-.52,4.25.65,1.21.75,5.41,5.67,3.32-2.44,1-3,4.88-5.51,3,0,1.27-.59,2.57.65,3.32l1.22-1.79c1.28,4.11-2.39,6.92,2.59,9.06l1.84-1.82c.64,2.48,1.3,4.54-3.64,6.17l-1.89-2.38c.66,4.15,1.31,6.62,4.46,9.77l0-1.26c2.85,1.9,5.91,8.55,9.2,15.16,1.63,3.31,3.31,6.6,5,9.29s3.35,4.77,5,5.63l3.75-2.33,3.69,3.2c0-.43-13-.35-11.73-.84l1.75,10.6,1.28,7.89c.42,2.8.82,5.72,1.21,8.63.77,5.84,1.46,11.66,1.81,16.49s.3,8.64-.23,10.45c-2,3-6.23,1-6.86,1,1.75,3.32,4.31,1.15,4.2,4.11-.65.85-3.11.08-3.71-.33.57,1.25-.71,2.54,1.15,2.49,1.31-1.71,6.26-1.41,9.39-2.34l-.12,3.81-3.11.07c0,.85,8.65,1.5,7.25,5.35-.92,6.37.63,13.12.34,19.48-1.86,0-3.05-1.23-4.23-2.49,0,.85.53,2.11-.76,3,3.18-1.73,2.37,2.51,3.67,1.23,7.88,4.16,1.26,10.57,6.64,14.36,3.42,0,32.81.56,62.37,1.21S43,1814.21,47,1814c-.07,1.36-.14,2.7-.79,3.15a2.94,2.94,0,0,0,1.48-4.49l-4.36,0c-1.7-3.16,2.54-.89,2.07-4,3.54-.36,4.47,2.51,5,5.06.28-2.33,2.75-4.78-1.2-5.51,1.36-2.25,4.36,0,5.73-2.7-1.15-1.81-4.76-4.06-2.78-6.33h.63c3.37-5.44-5.81-7.65-2.52-12.62l1.22.44c1.94-1.81-1-4.95.94-8.13-.66.91-3.18,1.84-3.72,0,2-3.64-.4-5.86,2.2-8.61l-3.64-2.2a136,136,0,0,0-1.52-14.65c-.89-6.35-2-13.8-3.34-21.23s-2.59-14.86-3.77-21.17-2.14-11.52-2.59-14.53l.6.42c-.46-2.29-.91-4.88-1.37-7.7l-1.5-9.07c-1.05-6.4-2.09-13.43-3.35-20.45s-2.64-14-4.14-20.44a122.88,122.88,0,0,0-5.1-16.76c3-3.41,1.62-7.35,2.15-10.55-1.18,1.91-3.67,1.67-3.71.33-1-9.36-2.44-.29-5.31-9.46-1.2-2.58-2.26-7.14-3.17-12.68s-1.76-12-2.37-18.54c-.31-3.25-.57-6.5-.78-9.63s-.43-6.12-.56-8.87a90.41,90.41,0,0,1,0-12.53c-5.85-4.25-3.34-11.32-7.41-15.76l1.27.29c-.72-1.26-1.33-4.17-1.89-7.91-.28-1.87-.54-4-.81-6.14l-.84-6.78c-1.14-9.2-2.22-18.54-3.8-21.48l-.53,1c-4.23-4.8,1.34-5.19,2.12-9.84A9.07,9.07,0,0,1-14.87,1470l1.23-.19c-1.51-2.48-7.59-7.49-9.34-11.71l3.07-.5c-4.08-2.95-4.28-10.14-5.19-12.7-.06-6.31,3-16.83-2.94-23.94l7.36-7.28-1-.56s-26.46,4.2-55.35,10.46-60.23,14.52-70.1,22.2l-3,.57.86,1.89c-.92,2.73,2.84,3-.21,3.55l-.41-3.34c-.31,2.6-2.3,1.31-4.22.81a5.42,5.42,0,0,1-.92,3.13c1.27.19,1.17-.64,1.74-1.17,1.37,1,4.62,2.14,3.6,4,.3,2.51-4.85,1.31-4.5,4.23.66,7.76.8,15.5,1.4,23.14a132.31,132.31,0,0,0,3.43,22.75c-1.18.61-1.23.19-1.88-.13,2.27,4.3,2.71,8.46,4.88,12.36-1.13,1.44-2.93,2.14-4.13,2.74C-148.21,1519.1-143.16,1542.79-143.84,1543.31Z"/><path class="cls-1" d="M-179.09,1769.43l5.62.42c.58,10.65-6.25,3.4-4.41,13.18,8.09,3.48-.06,16.4,4.3,19.61-.63,0-.65,4.79-3.13,4.6,4.36,1.28,1.23,4.91,2.47,7.9,1.25,1,1.25-.87,2.5-1.75l1.84,6.9c-1.25,2.79-3.75,3.58-4.35.64-.17,4.57-.3,13.47-.36,24.56l0,4.26v2.2l.09,4.18.43,18.34.49,19.25c.21,6.51.24,13.19.78,19.67A125.66,125.66,0,0,0-170,1932a112.47,112.47,0,0,0,5.2,16.17,96.83,96.83,0,0,0,6.82,13.54c1.21,2.14,2.6,4.13,4,6.13s2.87,3.95,4.43,5.82a99.32,99.32,0,0,0,9.77,10.19,95,95,0,0,0,9.61,7.62A82.27,82.27,0,0,0-115,1999.8c-.93-2.31-3.9-4.15-6.63-6.33a19.74,19.74,0,0,1-3.58-3.59,6.86,6.86,0,0,1-1.5-4.26,27.31,27.31,0,0,1,5.38,2.25,34,34,0,0,1,3.57,2.29,16.88,16.88,0,0,0,2.88,1.7,5.8,5.8,0,0,0,3.25.28c-.81,3.94,3.13,6.32,7.64,8.5s9.62,4.15,11.11,8.66c1.63-1.28,3.25-2.6,4.84-3.91l3.68,2.83c11.31-.37,17.49-.67,21.14-.83a35.42,35.42,0,0,1,5.63-.07c.9.13,1.59.41,4.43.89,1.42.24,3.37.52,6.16.85l4.84.54,3,.3,1.63.16a13.7,13.7,0,0,0,1.76.1,148.36,148.36,0,0,0,15.34-1.59c4.47-.66,8.37-1.43,11.9-2.11.1,0,.25,0,.3-.06l.16-.06.33-.12.64-.23,1.25-.43a18.42,18.42,0,0,1,2.4-.61,9.17,9.17,0,0,1,4.66.29c-.94,0-3.45-2.65-.52-3.77.51,3.76,7.82-2.78,9.26,1.07,2.88-.47,12.2.06,9.06-5.12,1.58,2.58,9.9,3.67,4.93,5.89,2.81.16,5.52.93,7.55-.2l-3.59-1.45a34.6,34.6,0,0,1,6.38.14c1.91.23,3.64.54,5.26.73,3.24.37,6.08.25,9.2-2l-3.48-2.11c5.68-.23,10.44-.54,12.56,4.6L52,2004.43c4.7,0,8.46-.07,12-.41a51,51,0,0,0,10.93-2.25l-2.79-.22c2.53-1.2,7.7-2.28,14.2-3.3s14.3-1.86,22.11-2.81L120,1994c3.73-.45,7.28-.92,10.51-1.44,6.44-1,11.54-2.22,13.95-3.69l-4-4.19,8.17-2.91c-.95-.1-4.6,12.65-5.31,11.31,8.52.27,34.95,1.12,61.18,2.8s52.22,4.43,59.9,6.65c6.06,2.92.43,6.39.29,7,7.82-.58,3.78-3.79,10.26-2.7,1.7.92-.73,3-1.79,3.49,2.91-.13,5.39,1.54,5.83-.28-3.4-1.84-1.32-6.55-2.46-9.9l8.36,1.4-.74,3c1.86.31,5.78-7.9,13.84-5.16,6.89,1.57,14.15,2.55,21.42,3.5s14.56,2,21.5,3.3c-.49,1.81-3.58,2.48-6.67,3.15,1.86.36,4.78.29,6.31,1.86-2.9-3.73,6.18-1.34,3.74-3.08,5.67-3,11.57-2.23,17.27-1.22s11.2,2.29,16.12.5c.94-3.3,10.45-31.43,20.16-59.69s19.56-56.66,20.25-60.66c2.93.64,5.85,1.28,6.64,2.09-.43-2-6.1-3.88-9.37-3.32l-1.26,4.2c-7.35.32-1.23-2.82-8.21-3.69.21-3.57,6.72-3.26,12.41-2.65-5-1.25-9.63-4.66-12.33-1.16-4.52-2.26,1.24-4.2-4.26-6.66-4.26.32-10.19,2.94-14.57.14l.18-.61c-5.44-2.7-10-2-14.49-1.36a37.13,37.13,0,0,1-6.68.63,15.67,15.67,0,0,1-7.07-1.75l1.3-1c-3.41-2.56-11.09-.86-17.47-4,1.81,1,3.11,3.77-1,3.62-7.37-3.34-12.93-1.71-18.19-5.21l-5.84,2.76c-13.33-2.15-46.63-5-80-6.89-8.34-.44-16.67-.93-24.7-1.28L190.3,1860c-14.2-.51-25.93-.8-32.68-1.12l1.09-.49-17.33-.39c-6.34-.14-13.19-.44-20.38-.56L98.54,1857c-7.72-.14-15.61-.15-23.51-.2-31.61-.06-63.42.86-84.62,3.56-.61-1.71-1.15-2.36-1.71-2.7s-1.14-.37-1.51-.84c.2,1.42-.47,3.87-1,3.74-1.86-.16-2.14.44-2.54,1.27s-.82,1.9-3.61,2.69a9.84,9.84,0,0,1-3.35.83,7.48,7.48,0,0,1-4.14-.78,4.48,4.48,0,0,1-1.67-1.65,6,6,0,0,1-.71-2.44,41.76,41.76,0,0,1,.15-5.46c.13-1.83.32-3.61.54-5.27.11-.83.23-1.62.36-2.38l.2-1.1.1-.52.05-.26a.82.82,0,0,0,0-.16v-.56c.15-11.82.48-21.44,1-26.71-5.58-11-2.41-25.26-6.12-36.14l1.24,1.06c-2.45-11.76-.9-79-3.35-92.73l-.64,1.88c-3.7-11.86,1.91-10.48,3.19-20-5.61,1.51-9.31-8.63-9.92-12.54l1.25.09c-1.23-5.87-6.78-19-8-28.78l3.12.24c-3.71-8-3-23.38-3.64-29.23.66-13.46,5.09-34.37.16-52.09l8.3-12-1-1.65s-107.6-13.66-129.23,11.06l-3.11-.23.62,4.66c-1.26,5.68,2.45,8.11-.66,7.87l0-7.71c-.63,5.68-2.46,1.82-4.31-.25a20.24,20.24,0,0,1-1.32,6.59c1.24,1.06,1.25-.88,1.88-1.79,1.23,3,4.34,7.07,3.08,10.83,0,5.79-5,.6-5,7.35-.74,35.64-2.72,70.24-.34,106.12-1.25.88-1.24-.1-1.87-1.11,1.84,10.76,1.81,20.4,3.65,30.18-1.26,2.8-3.13,3.64-4.38,4.51C-181.31,1712.49-178.46,1768.51-179.09,1769.43Z"/><path class="cls-1" d="M-172.56,1788.83l5.4-1.52c2.08,5.61-5.44,3.82-2.22,8.57,4.09-.35,4.69,1.87,4.86,4.24s-.05,4.86,2.25,5c-.6.19.16,2.8-2.21,3.55,4.31-.8,1.94,2.25,3.6,3.43,1.35.13,1-.9,2.05-1.81l2.88,3.06c-.7,1.93-2.9,3.24-4,1.87.61,2.52,2,7.38,3.95,13.34l1.55,4.69,1.84,5.18c.62,1.75,1.37,3.65,2.08,5.5l1.1,2.82,1.2,2.89c1.56,3.82,3.37,7.79,5.14,11.56s3.71,7.5,5.67,10.92,3.8,6.49,5.51,9.06c.84,1.28,1.65,2.43,2.44,3.45s1.48,1.87,2.09,2.55c.83-1.68.18-3.13-.26-4.69a5.05,5.05,0,0,1,1.15-5.24c4.28,1.51,2.11,5.11,5.5,4.81-2.76,2.7-2,4.67-1.09,6.81s2,4.47-.17,8l4.12-1.64c-.32,1-.65,2.1-.92,3.17,3.65,2.88,5.74,4.37,7,5.26s1.65,1.18,1.85,1.53.23.75.83,1.89a25.83,25.83,0,0,0,1.42,2.34,42.73,42.73,0,0,0,2.95,3.93,29.2,29.2,0,0,0,10.46,6,24,24,0,0,1,4.15,1.91,8,8,0,0,1,2.83,3c-.62-.59-.51-4,2.16-3.12-1.09,1.55.67,2.18,2.5,2.85s3.7,1.37,3,3.25c2.28,1.26,8.73,6.64,9.51.78-.2,1.44,1,3.51,1.77,5s.95,2.67-1.58,2.32c2,1.57,3.74,3.59,5.92,3.64l-2-3a32,32,0,0,1,4.82,3.27c1.4,1.06,2.62,2.1,3.84,3a12.71,12.71,0,0,0,3.75,2,9,9,0,0,0,4.57,0l-1.8-3.23a23.3,23.3,0,0,1,5.89,3.17,6.37,6.37,0,0,1,2.2,5.69c-1.78-.23-3.56-.44-5.37-.78,1.93,1,3.66,1.63,5.3,2.28a49,49,0,0,0,4.73,1.58,33.29,33.29,0,0,0,9.62,1c-.71-.29-1.44-.62-2.17-.95a28.89,28.89,0,0,1,5-.22c2.06,0,4.54.29,7.15.4,5.28.33,11.41.71,17.24.66,1.46,0,2.92,0,4.35-.06s2.8-.14,4.15-.23a72.5,72.5,0,0,0,7.5-.84,34.65,34.65,0,0,0,5.89-1.38,11.83,11.83,0,0,0,3.76-1.88l-2.34-4.26c1.84-.9,3.66-1.81,5.41-2.78-.56-.1-3.71,12.59-4.14,11.23,1.43.12,3.53.21,6.22.34,1.35.08,2.77.09,4.33.14s3.24.09,4.94.09c6.91.08,14.95-.08,22.49-.38,15.29-.5,30.4-1.63,35.07-.67,3.87,1.9,1.17,6.22,1.16,6.85,4.43-1.85,1.62-4.33,5.49-4.33,1.11.61.06,3.12-.48,3.74,1.65-.63,3.35.59,3.3-1.26-2.25-1.23-1.81-6.21-3-9.31l4.91,0,.1,3.11c1.12,0,1.88-8.74,6.78-7.6,8.16.4,16.68-1.92,24.78-2.56.19,1.86-1.31,3.24-2.84,4.58,1.1-.07,2.67-.81,3.88.33-2.49-2.91,3-2.75,1.25-3.85,2.28-4.23,5.56-5,8.83-5.51s6.52-.73,8.52-3.77c-.48-3.39-3.93-32.65-8.18-61.9s-9.18-58.57-10.13-62.51c1.19-.13,2.37-.26,2.89.3-.76-1.78-3.23-2.13-4.18-.78l.79,4.28c-2.46,2.16-1.24-2.36-3.9-1.45-.92-3.44,1.4-4.72,3.49-5.59-2.06.08-4.57-2-4.52,2-2.17-1-.75-4.29-3.27-5.29-1.33,1.38-2.71,5.19-4.95,3.51l-.09-.62c-2.56-1.35-4,.26-5.38,1.92s-2.79,3.24-5.13,1.81l.24-1.25c-1.76-1.77-4.16,1.39-7.08-.38.84.6,1.88,3.05.37,3.7-3.32-1.8-5.06.73-7.61-1.76l-1.68,3.73c-5.29.32-18.21,2.74-31.37,4.3-6.52.8-13.35,1.46-18.47,1.84s-9.07.52-11.17.44l.38-.52a71.38,71.38,0,0,1-10.84-.41,80.89,80.89,0,0,1-9.58-1.62c-.62-.16-1.32-.26-1.83-.43q-.42-.11-.86-.18l-.75-.2c-.25-.06-.52-.1-.76-.15a6.3,6.3,0,0,0-.66-.17,11.85,11.85,0,0,1-1.36-.31c-1.83-.43-4-.92-6.26-1.55a6.18,6.18,0,0,0,.6-2,3.32,3.32,0,0,0-.17-1.43,8,8,0,0,0-.52-1.08,4.41,4.41,0,0,1-.4-1.23c-.55,1.57-2.54,3-2.89,2.35a6.38,6.38,0,0,0-.92-1.05,1.9,1.9,0,0,0-.68-.5,1.15,1.15,0,0,0-1.06.26A2.3,2.3,0,0,1-.4,1810a2.91,2.91,0,0,1-1.07-.26,5.23,5.23,0,0,1-1.49-1,9.35,9.35,0,0,1-1.31-.92q-.35-.29-.71-.62c-.24-.25-.48-.52-.73-.8-.5-.57-1-1.2-1.54-1.89s-1.06-1.54-1.61-2.38A82.65,82.65,0,0,1-15.39,1789a156.47,156.47,0,0,1-5.3-15.63c-.7-2.54-1.3-4.86-1.74-6.85a39,39,0,0,1-.8-4.86c-3.28-1.35-4.65-3.84-5.71-6.42s-2-5.22-4.3-7l1.29,0c-.89-1.07-2-3.72-3.07-7.19s-2.23-7.75-3.27-12.08-2-8.69-3-12.28-1.81-6.49-2.69-7.82l-.46,1c-4.51-4.26,1-5.1,1.57-9.57a8.82,8.82,0,0,1-6.94-.21,8.16,8.16,0,0,1-3.56-3l1.22-.25a54.2,54.2,0,0,0-4.76-4.85c-2-2-4-4.19-4.87-6.25l3.06-.55c-4.08-2.82-4.29-9.9-5.11-12.43a48.42,48.42,0,0,1,.45-5.28c.25-1.94.54-4,.64-6.11.17-4.19-.18-8.5-2.92-12.13q4-3.3,7.93-6.52l-1-.61s-6.68.52-17,1.47-24.38,2.31-39.06,4.09c-29.35,3.58-61.34,8.8-71.54,17.08l-3.09.28.8,2.5c-1,3.33,2.8,4.14-.3,4.45q-.19-2.13-.33-4.27c-.39,3.23-2.36,1.35-4.28.44a7.93,7.93,0,0,1-1,3.86c1.28.41,1.19-.66,1.77-1.26,1.37,1.49,4.64,3.3,3.59,5.57.27,3.21-4.91,1.08-4.58,4.85.66,10,1.1,19.93,2.26,29.8.52,4.95,1.3,9.85,2.2,14.76a137,137,0,0,0,3.66,14.61c-1.12.79-1.22.24-1.93-.17a63.37,63.37,0,0,1,3.42,8.14,49.27,49.27,0,0,0,3.47,7.67c-.89,1.88-2.59,2.84-3.69,3.66,1.1-.81,4,6.35,6.77,13.73S-172.31,1788.47-172.56,1788.83Z"/><path class="cls-1" d="M37.36,1911.47l3.32-4.52c5.69,3.46-1.77,6.49,4.43,8.58,3.11-2.76,5.26-1.24,7.18.66s3.77,4.17,5.76,2.89c-.35.52,2.35,2.29,1,4.37,2.94-3.3,3.33.74,5.74.72,1.23-.71.1-1.39.21-2.79l4.93.81c1,2.07.31,4.54-1.73,4,5.08,3.64,21.29,12.89,38,19.9,2.09.93,4.18,1.74,6.26,2.55l6.16,2.35c4,1.5,7.92,2.72,11.5,3.86s6.79,1.91,9.54,2.57c1.38.32,2.63.59,3.74.79s2.07.3,2.87.36c-.4-1.78-1.67-2.32-2.88-3.17a5,5,0,0,1-2.41-4.55c4-1.9,4.52,2.24,6.66-.35-.58,7.67,6.6,3.46,7.35,11.53l1.86-4,1,2.91c7.54-.68,8.43-1.05,9-.79s.8,1.14,6.89,2.82a14.73,14.73,0,0,0,5-.38,37.63,37.63,0,0,0,4-1.36c2.42-.91,4.37-1.54,6.15-.12-.58-.14-1.69-3,.29-3.78-.26,3.81,5.18-1.94,5.46,2,1.82-.21,7.41,1.12,6.23-4.28.6,2.71,5.42,4.4,2.15,6.23,1.66.38,3.19,1.35,4.56.38l-2-1.72c2.88,0,5,1.11,6.87,1.68s3.58.59,5.68-1.52l-1.82-2.29c3.37.07,6.2,0,6.93,5.25l-3.61,1.16c5.58.54,8.88.51,13.74-1.68l-1.61-.32c3.16-2.23,12.33-3.64,21.21-5.35,4.45-.85,8.81-1.77,12.45-2.83s6.44-2.3,7.84-3.79l-2-4.15,4.6-3c-.51-.09-3.17,12.65-3.49,11.33,4.65.22,19,.51,32.66,1.28s26.77,2.15,30.45,4c2.85,2.57-.22,6.32-.33,6.93,4-1,2.16-4,5.34-3.22.78.82-.59,3.06-1.16,3.56,1.48-.3,2.55,1.26,2.91-.56-1.54-1.67-.15-6.44-.47-9.71l4.07,1-.61,3c.88.23,3.54-8.1,7.34-5.83a61.45,61.45,0,0,0,10.27,2.41c1.74.3,3.48.58,5.2.9a51,51,0,0,1,5,1.25c-.47,1.8-2.05,2.61-3.63,3.41.85.27,2.27.06,2.81,1.53-.93-3.54,3.17-1.61,2.21-3.21,3.18-3.27,5.92-2.77,8.55-2.06s5,1.8,7.73-.19c1-3.25,10.39-31.17,20.64-58.92s21.25-55.44,22.37-59.34c1.76.65,3.51,1.29,3.87,2.09.08-2-3.22-3.84-5.41-3.31l-1.49,4.1c-4.7.28-.32-2.77-4.61-3.66.68-3.5,4.79-3.16,8.34-2.52-3-1.26-5.44-4.64-7.7-1.21-2.53-2.16,1.44-4.12-1.71-6.48-2.79.39-6.89,2.94-9.26.2l.19-.6c-3.05-2.57-6-1.85-8.88-1.1s-5.58,1.61-8.35-.8l.91-1c-1.82-2.46-6.72-.64-10.25-3.46,1,.91,1.51,3.61-.92,3.61a13.4,13.4,0,0,0-5.71-2.21A7.49,7.49,0,0,1,378,1822l-3.68,2.95c-1.93-.4-4.59-.81-7.73-1.16s-6.89-.78-10.86-1.07l-6.24-.46c-2.15-.15-4.32-.25-6.55-.38-4.49-.26-9-.42-13.59-.58-18.23-.6-35.42-.57-42.31-.89l.59-.51c-10.53,0-26.24-.92-41.18-1.76s-29.36-1.66-39-.91c-2.32-3.83-6.25-3.8-9-5.28,1.34,1.71.33,4-.92,3.62-8.71-2.2-1.06,2.22-10.27,1.76a27.12,27.12,0,0,1-5.18-.33,57.07,57.07,0,0,1-6.95-1.44c-1.26-.33-2.59-.66-3.9-1.07l-4-1.33c-2.76-.89-5.44-2-8.14-3.15-1.36-.54-2.66-1.17-3.93-1.79l-3.76-1.85c-2.42-1.27-4.62-2.6-6.66-3.79-3.93-2.57-7-4.77-8.46-6.42-3.09,1.25-5.48.46-7.8-.8s-4.48-2.52-7.34-2.41l1-.79c-2.67-.47-9.59-5.34-17-11.19s-15.16-12.12-18.6-13.45l.36,1.14c-3.41-.49-4.16-1.75-4.41-3.41s0-3.71-1.56-5.87c-2.75,5-9,4.48-11,3.63l.78-1c-3.19-1.08-11.9-1.23-16.85-3.73l1.95-2.43c-2.81.07-5.75-1.39-8.48-3.09s-5-3.61-6.56-4.41c-2.95-2.68-6.08-6.82-10.26-10.56-1-.94-2.1-1.85-3.21-2.71q-.84-.64-1.71-1.24c-.6-.39-1.22-.77-1.85-1.13a25.29,25.29,0,0,0-8.11-3c-.62-3.75-1.38-7.5-2.15-11.3l-1.38.25s-3.85,5.51-9.48,14.25-13,20.73-20.31,33.59-14.5,26.57-20,38.63-9.41,22.4-10,28.54l-1.63,2.64,1.86.56c1.25,2.41,4-.05,2.32,2.52-.87-.65-1.74-1.34-2.59-1.93,1.57,1.87-.66,2.53-2.26,3.66a4.86,4.86,0,0,1,1.5,2.72c1-.8.35-1.29.37-2.06,1.62-.31,4.63-1.91,5.25.1,1.95,1.49-2.45,4.36-.2,6.11,2.94,2.56,5.76,5.06,8.73,7.85s6,5.56,9,8.3c1.56,1.41,3.19,2.87,4.81,4.26l2.46,2.08,2.6,2.13c1.76,1.41,3.5,2.75,5.36,4.12s3.81,2.73,5.79,4c-.39,1.3-.78,1-1.56,1.12a56,56,0,0,1,7.48,4c1.18.7,2.34,1.39,3.53,2A34.6,34.6,0,0,0,9,1889.67c.48,2-.27,3.83-.62,5.15.18-.66,1.94,0,4.53,1.31s6.13,3.43,9.65,5.63,7.19,4.52,10,6.35A31,31,0,0,1,37.36,1911.47Z"/></svg>