<?xml version="1.0" standalone="no"?>
<svg viewBox="0 0 200 200" xmlns="http://www.w3.org/2000/svg">
  <path fill="#000000" d="M41.7,-77C50.1,-67.4,50.3,-48.3,42.9,-33.8C35.4,-19.4,20.5,-9.7,20.8,0.2C21,10,36.5,20,43,32.9C49.6,45.8,47.1,61.6,38.5,72.6C29.8,83.5,14.9,89.6,0.8,88.2C-13.4,86.9,-26.7,78.2,-38,68.8C-49.3,59.3,-58.6,49.3,-57.8,37.7C-57,26.1,-46.1,13.1,-37.3,5C-28.6,-3,-22,-6,-18.8,-10.5C-15.5,-15,-15.6,-21,-13,-34C-10.4,-47,-5.2,-66.9,5.7,-76.9C16.7,-86.8,33.3,-86.7,41.7,-77Z" transform="translate(100 100)" />
</svg>
