<?xml version="1.0" standalone="no"?>
<svg viewBox="0 0 200 200" xmlns="http://www.w3.org/2000/svg">
  <path fill="#000000" d="M33.4,-54.3C44.7,-51.3,56.1,-45.2,61.2,-35.6C66.3,-26,65.1,-13,62.5,-1.5C59.9,10,56,20.1,48.4,25.4C40.9,30.7,29.7,31.3,21,39.9C12.3,48.4,6.2,64.7,-4,71.6C-14.1,78.5,-28.3,76,-36.1,67C-43.9,58,-45.4,42.5,-39.8,30.3C-34.3,18.1,-21.6,9,-22.6,-0.5C-23.5,-10.1,-38,-20.2,-44.1,-33.4C-50.2,-46.6,-48,-62.9,-39.2,-67.3C-30.5,-71.6,-15.2,-64.2,-2.1,-60.6C11.1,-57,22.1,-57.2,33.4,-54.3Z" transform="translate(100 100)" />
</svg>
