<?xml version="1.0" encoding="iso-8859-1"?>
<!-- Generator: Adobe Illustrator 19.0.0, SVG Export Plug-In . SVG Version: 6.00 Build 0)  -->
<svg version="1.1" id="Layer_1" xmlns="http://www.w3.org/2000/svg" xmlns:xlink="http://www.w3.org/1999/xlink" x="0px" y="0px"
	 viewBox="0 0 512 512" style="enable-background:new 0 0 512 512;" xml:space="preserve">
<g>
	<polygon style="fill:#FFFFFF;" points="64,80 152,80 168,80 248,80 264,80 352,80 352,168 248,168 248,136 168,136 168,168 64,168 
			"/>
	<polygon style="fill:#FFFFFF;" points="232,152 232,168 232,184 232,200 184,200 184,184 184,168 184,152 	"/>
	<path style="fill:#FFFFFF;" d="M144,304H96H64V184h104v32h80v-32h104v8h-56c-22.056,0-40,17.944-40,40v72H144z"/>
	<path style="fill:#FFFFFF;" d="M432,456c0,13.232-10.768,24-24,24s-24-10.768-24-24v-8H272V232c0-13.232,10.768-24,24-24h144.016
		c-0.232,0.304-0.4,0.664-0.624,0.976c-0.472,0.664-0.88,1.36-1.304,2.056c-0.84,1.344-1.6,2.728-2.272,4.176
		c-0.36,0.784-0.712,1.56-1.024,2.368c-0.6,1.544-1.072,3.136-1.48,4.76c-0.184,0.752-0.424,1.48-0.568,2.248
		C432.296,226.992,432,229.456,432,232v56V456z"/>
	<polygon style="fill:#FFFFFF;" points="216,384 224,384 224,416 216,416 200,416 200,384 	"/>
</g>
<g>
	<path style="fill:#DCDDDE;" d="M208,72v72h32v64h-32v8h-40v8h24c8.84,0,16,7.16,16,16v72h56v-80c0-17.68,14.32-32,32-32h64V72H208z
		"/>
	<rect x="64" y="184" style="fill:#DCDDDE;" width="104" height="16"/>
</g>
<polygon style="fill:#F37053;" points="192,424 192,424 192,424 96,424 64,424 16,400 64,376 192,376 "/>
<g>
	<path style="fill:#53B7E8;" d="M408,488c-17.68,0-32-14.32-32-32H200c0,17.68,14.32,32,32,32H408z"/>
	<path style="fill:#53B7E8;" d="M504,280v-48c0-17.68-14.32-32-32-32s-32,14.32-32,32v48H504z"/>
</g>
<g>
	<rect x="200" y="168" style="fill:#0C3847;" width="16" height="16"/>
	<rect x="320" y="96" style="fill:#0C3847;" width="16" height="56"/>
	<rect x="80" y="96" style="fill:#0C3847;" width="16" height="56"/>
	<path style="fill:#0C3847;" d="M512,232c0-22.056-17.944-40-40-40H368v-8v-16V64H264V16H152v48H48v104v16v136h48v16h48v-16h112v128
		h-64v8c0,22.056,17.944,40,40,40h176c22.056,0,40-17.944,40-40V288h64V232z M168,32h80v32h-80V32z M64,80h88h16h80h16h88v88H248
		v-32h-80v32H64V80z M232,152v16v16v16h-48v-16v-16v-16H232z M144,304H96H64V184h104v32h80v-32h104v8h-56c-22.056,0-40,17.944-40,40
		v72H144z M232,480c-10.432,0-19.328-6.688-22.632-16H256h112.808c0.416,2.032,1.032,3.976,1.744,5.888
		c0.168,0.448,0.336,0.896,0.52,1.336c0.76,1.848,1.624,3.64,2.648,5.328c0.112,0.184,0.248,0.36,0.36,0.544
		c0.616,0.992,1.248,1.968,1.944,2.904H232z M432,456c0,13.232-10.768,24-24,24s-24-10.768-24-24v-8H272V232
		c0-13.232,10.768-24,24-24h144.016c-0.232,0.304-0.4,0.664-0.624,0.976c-0.472,0.664-0.88,1.36-1.304,2.056
		c-0.84,1.344-1.6,2.728-2.272,4.176c-0.36,0.784-0.712,1.56-1.024,2.368c-0.6,1.544-1.072,3.136-1.48,4.76
		c-0.184,0.752-0.424,1.48-0.568,2.248C432.296,226.992,432,229.456,432,232v56V456z M496,272h-48v-40c0-13.232,10.768-24,24-24
		s24,10.768,24,24V272z"/>
	<path style="fill:#0C3847;" d="M240,432v-64H54.112L0,400l54.112,32H240z M216,384h8v32h-8h-16v-32H216z M32,396.944l16-8v22.112
		l-16-8V396.944z M160,416H88H72h-8v-32h120v32H160z"/>
	<rect x="344" y="256" style="fill:#0C3847;" width="16" height="16"/>
	<rect x="376" y="256" style="fill:#0C3847;" width="16" height="16"/>
	<rect x="312" y="256" style="fill:#0C3847;" width="16" height="16"/>
	<rect x="288" y="328" style="fill:#0C3847;" width="128" height="16"/>
	<rect x="288" y="296" style="fill:#0C3847;" width="128" height="16"/>
	<rect x="288" y="392" style="fill:#0C3847;" width="128" height="16"/>
	<rect x="288" y="360" style="fill:#0C3847;" width="128" height="16"/>
</g>
<g>
</g>
<g>
</g>
<g>
</g>
<g>
</g>
<g>
</g>
<g>
</g>
<g>
</g>
<g>
</g>
<g>
</g>
<g>
</g>
<g>
</g>
<g>
</g>
<g>
</g>
<g>
</g>
<g>
</g>
</svg>
