<svg id="Layer_1" data-name="Layer 1" xmlns="http://www.w3.org/2000/svg" viewBox="0 0 2880 1800"><defs><style>.cls-1{fill:#222121;}</style></defs><title>SVGSDGF</title><path class="cls-1" d="M839.25,1162c-1.41-.13-2.11.06,0,0Z"/><path class="cls-1" d="M1931.54,1159.54c.43,0,.64,0,1.07,0a19.07,19.07,0,0,1,2.2-1.52Z"/><path class="cls-1" d="M2107.3,1163l1.07.16C2108.28,1162.79,2108.49,1162.43,2107.3,1163Z"/><path class="cls-1" d="M1526.58,1165.79a9,9,0,0,0-3,.3A26.48,26.48,0,0,1,1526.58,1165.79Z"/><path class="cls-1" d="M517.56,1158l.77,0c-.61-.14-1.24-.25-1.87-.42Z"/><path class="cls-1" d="M521.12,1157.05c3.86.57-1.09.82-2.79.88a46.77,46.77,0,0,0,12.87.92C531.19,1157.93,523,1157.8,521.12,1157.05Z"/><path class="cls-1" d="M1543.91,1211.24c-.86.09-1.85.13-2.64.22A9.32,9.32,0,0,0,1543.91,1211.24Z"/><path class="cls-1" d="M26.41,1138.69l1.1-1.41C26.58,1137.84,26.35,1138.29,26.41,1138.69Z"/><path class="cls-1" d="M1934.8,1158l1.27-.58A6.66,6.66,0,0,0,1934.8,1158Z"/><path class="cls-1" d="M2269.68,1163.68a1.81,1.81,0,0,0,.87,1.12h.46Z"/><path class="cls-1" d="M2492.44,1169.69c.2-.17.72-.33.76-.51-3.81-.49-13.86-.58-26.7-.5l-.78,1.81Z"/><path class="cls-1" d="M2736.1,1211.35l-23.75-3.59c76.21-1.79,111.78,1.79,177-1.25l-3.61.79c9.5.82,14.84-7.34,119.76,2.45v.36c3.64-.07,3.61-.79,10.89.16l-18.14-2.19c10.86-.93,20.35-2.68,34.84-2.95,3.08.4,4.13,1.14,4.43,1.72l35.52-.67,10.89,2.33c10.86-1.29,5.9-6.23,35-3.52-11-3.42,14.41-2.08,10.82-3.82,1.47.42,4.8,1.05,7.48,1.63,17.27-.43,49.8-1.44,57.85-3.22,0,0-67.6-7.12-85.78-10.76,24.32.89,6.41-.43,1.62-1.58l-1.62.86c-14.57-.81-14.58-3-21.86-3.57,0,.17.22.38.42.6l.93-.29c.69.38.28.65-.49.86.18.46-.49.83-4.46.71l.76-.23c-6.09.33-16.59,0-21.17-.14l-.09-1.81c-10.79,3.47-72.6-5.14-87.1-5.23-14.57-2.26-32.63.62-50.82-.49-29-.54-14.5-2.62-29.05-4.16-18.18-1.11,3.68,2.1-3.61,2.24l-21.78-2.48c12.65-.24,5.79-1.32,3.47-2-18.82-.28-48.51-3.55-54.29.07-25.4-1.69-25.46-3.14-36.35-3.3,3.65.65,10.89,1.24,11,2-10.17-1.58-4.86.4-.7.75-15.51,1.59-80.53-6.45-83.78-2.48v-.72c-3.6,3,2.19,5.82-8.64,7.47l-7.23-1.31-10.89,1.29c-7.3-.95-3.71-1.74-3.71-2.1-17.73,1.39-42.48-.19-64-.56l22.76,8c-18.13-1.83-50.83-5.55-54.44-3l-10.89-2.69c-36.34-5.11-25.36,2.29-39.87.75l-18.25-2.92,18.16,0c-18.16-1.46-25.43-2.42-39.91-4.31,0,0-.16.05-.16.08a3.86,3.86,0,0,1,1.78.44l-2.54.08c-2.2,1.47-11.67,2.5-24.46,2.42-18.17-.38-32.37,1.81-61.39-1.26l-7.23,3-21.78-1.76v-2.4c21.34.11,61.5-.87,88.93-1l.48-1.1c-16.27,0-34.77,1.12-45.51.9-5.24-.47-18.65-2.94-8.93-4.58l-10,2.36c-54.29.36-54.64.47-111.3-2.15l4.92,1.2c-11.24.73-22.44,1.43-25.57-.51-34-.34-69.26-1.8-91.36-4.8l-4.83,2.83c-7.18-.14-18-4.4-21.45-.44l-15.35,1.27c-9.82-.2-15.83,1.42-27-.18h-.06c-.69-.1-1.41-.2-2.11-.33a.4.4,0,0,0,.12.23c-22.22-1.21.23,2.53-25.23.95-8.17-2-9,3.6-21.43,3l-12.46-4c-22.47-2.29-26.31,1.78-58.86,1.85-15.63-1.42-23.19-4.87-12.84-8-14.23,3.74-6.47,2.43-25.35,4.25-2.91-1.52-.9-1.85,3.27-3.23-16.78-1.76-10.35,1.4-23,1.33-3.67,2.89-7.9,7.48-12,7.67l4.9.89a209.8,209.8,0,0,1-43.58.88l.58-1.45-16.57.76-1-1.85-23.66.61,3.24.49c-5.56.25-23.79.92-34.22,0l.38-1c-29.43-3.16-53.68,1.08-88.14,1.48l4.52-2.11c-11.74-2.07-3.21,3.24-17.2,2.22l-.7-2.58c-12.31,3.41-15.92-.69-24.41-2l4,3.37-16-.69c-17.6-1.09-10.81-4.25-8.24-6l-12,2.68-2.35-3c-8.75,3.49-8.76-.54-24.1,1.34-1.27-1.13,2.61-1.78-2.6-2.25l-25.3,4.25,15.26-1.89-1.85,4.36c-15.89,3.34-21.54-.44-32.89.79l7.82-1.31c-18.53,1.09-19.52-.76-30-1.71,3.24.8,8.2,2,.7,2.58-5.5.25-3-1.53-8.19-2-1.24,2.91-14.53,4.47-26.58,3.12a1.65,1.65,0,0,1,1.19-1.08c-3.07.48-4.66,1.23-10,.54l3.15-3.23-10.3,3.09c-6.87-.87-16.89,1.49-16-.7l3.9-.65-52-.7-.73-2.58c-5.14,3.56-28.34-1.31-26.63,3.12-9.82-2.41-38.64,1.75-32.87-3.26-34.18-.36-52.64,4.47-94.18,2-14.79-4.24-55.33-2.91-82-3.41-52.11,1.66-85.79,3.16-139.05,4.23-32-6.1-79.9,1.53-114.33-2.16l-9.46,2.26c-22.86-3.95-57.89.21-90-3.86-7.89.92-12,1.18-13.85,1.24,1.46.13,3.67.61,4.34,2.12-9.16-1.18-27.74-.14-26.37-3.11l2.34-.27c.7-1.48-6.27-1.24-14.68-1s-18.28.54-23.37-.84l5.56,3.3-17.37-.84,4.66-.53c-75.62,5.74-109.49-5.15-180.51-.55,9.49-3.24-14,1.46-14.84-2.39-17.73-5.33-33.13.09-47.82.9,0,.19-.19.4-1,.67l-25.6-1.28c15.45-4.33-18.57,3.41-4.39-.24-66.65-5.75-153.89-5.49-231.08-10.77l3.33,1.4c-19.58-1.12-44-.83-58.79-3.54s-32.67,1.48-38.45,1.39c-16.41,1.3-31-3.74-24-3.15-17.45-.38-34.07,3.18-58.14-.11-4-2.28-20.55-2.22-36.15-2.19s-30.25,0-30.47-2.34l-.29.37c-15.38-2.54-30.44-2.94-45.81-3.3s-31-.75-47.6-3.32a9.42,9.42,0,0,1,1.81-.53l-68.78,9.32,18.26,16.68,29,8.26,29,8.18q79.92,3.89,159.87,7.06,63.61,6,127.28,11.57,155.28,6.78,310.64,10.66l22.29-2.82c60.88,7.87,139.34,2.7,205,8.17l1.41-3c18.53.14,17.25,2,21.82,2.57,172.5,2.22,350-1.17,505,2.64,15,2,60.43.8,72.16,2.89,50.36-3.7,103.71-3.74,154.12-3.44l-1.91.33,23.74-.61c1,.24,1.13.6.37.83,26.78-2.69,69-.14,101.78.88l-1.91.33c191.34.23,369-5.64,558.75-1.77,88.24,4.73,190.87-2.17,292.11,1.73C2513.21,1215.35,2718,1212.78,2736.1,1211.35Z"/><path class="cls-1" d="M2614.46,1173.15l1.34,0-5-1.77Z"/><path class="cls-1" d="M2885.41,1171.67c-12.18-.37-12.74-.07-11,.43A75.8,75.8,0,0,0,2885.41,1171.67Z"/><path class="cls-1" d="M2882.85,1197.67l-13.53.31A100.35,100.35,0,0,0,2882.85,1197.67Z"/><path class="cls-1" d="M489.93,1428.32l2.5-8c39-.13,11.36,9.14,47.41,7.15,14.1-11.31,59.89,1.15,72.35-4.86-.28.9,17.37,1.23,16.26,4.77,5.4-6.14,18.16-1.43,29.29-3,4-1.71-3-1.84-6-3.69l25.5-2.18c10,2,12.43,5.58,1.59,6.25,66.66,2.18,386.67,8,458.48,4.87-9.23-4.63-31.4-1.49-39.82-8.78,19-4.09,27.95,1.42,36.32-2.88,7.29,10.84,41.72,2.58,56.1,13.56l5.44-6.14,9.43,3.76c83.49-6.42,19.08-3.13,93.09-1.7,42.84-1,63.18-9.49,87-6.36-3.54-.06-13-3.82-1.89-5.39,1.89,5.39,29.54-3.88,34.95,1.57,10.87-.68,46.08,0,34.16-7.37,6,3.68,37.4,5.18,18.69,8.38,10.6.21,20.87,1.3,28.49-.34l-13.61-2.05c35.79-1.08,55.3,4.62,78.61-2.06l-13.23-2.93c21.4-.47,39.29-1,47.7,6.26l-22,2.25c35.49-.2,56.89-.69,86.47-4.58l-10.56-.2c37.68-7.3,234.81-13.38,269.53-22.53l-16-5.66,29.86-4.78c-3.53-.07-14.4,18.4-17.37,16.55,64-.55,396.81-5.05,455.9-1.25,23.84,3.13,4.29,9,4,9.89,29-2.12,12.52-6,37.19-5.53,6.73,1-1.39,4.44-5.18,5.25,10.81-.67,20.84,1.29,21.66-1.36-13.52-2-7.8-9.07-13.52-13.64l31.73.6-1.41,4.44c7.08.13,17.94-12.13,49.11-9.76,52.59,1.9,109.71.33,162.59,1.34-.82,2.66-11.92,4.23-23.05,5.8,7.09.13,17.9-.55,24.43,1.36-12.77-4.7,22.19-3.14,12.21-5.11,38.73-10.85,88.85-1,123-8.34,3-9.75,73.16-167.53,73.15-179.13,10.62.21,21.18.41,24.42,1.37-2.74-2.73-23.61-4-34.7-2.46l-1.91,6.21c-25.52,2.19-6-3.69-30.88-3.26-1.33-5.08,21.59-6.18,41.78-6.67-18.17-.59-36.28-4.29-43.68,1.28-17.08-2.11,1.9-6.21-18.68-8.38-14.65,1.5-33.9,6.48-50.73,3.48l.3-.9c-40.93-5.24-62.61,7.73-100,2.55l4-1.7c-13.22-2.94-39.24,1-63.08-2.11,6.8,1,12.71,4.7-1.62,5.31-27.42-3.2-46.12,0-66.16-3.94l-19.23,5c-95.45-.94-472.46,6.26-568.34,7.09l3.76-.8c-146.09,2.54-446,2.25-597,9.16-23.35-4.89-55.56-3.73-79.92-5.09,13.55,2,8.91,5.52-1.67,5.32-74.23-.54-5,3.39-80.08,5.51-86.44,4.59-417.26-.49-494-4.65-41.22,7.24-92.67,1.79-133.05,6.37l4.07-1.71c-43.37,2.73-288.87-3.88-339.28-1.28l6.77,1c-44,4.5-38-3.41-72.6-5.86,4.55,8.11-33.11,12.72-47.47,13.34l.54-1.77c-21.66,1.37-70.73,8.43-106.5,9.53l1.4-4.44c-29.83,4.77-85.92,2.81-107.37,3.29-49-1.82-124.66-9.52-190.23-3.63l-42.36-12.63-6.2,1.26s-68.17,152.66,18.44,185.14l-1.38,4.42,17.12-.58c20.54,2.17,30-3,28.65,1.46l-28.14-.53c20.64,1.28,6.23,3.63-1.65,6.13,8.62.42,17,1,23.84,2.31,4.07-1.7-3-1.84-6.2-2.8,11.1-1.56,26.56-5.73,40.08-3.69,21.14.41,1.35,7.17,26,7.64,130.07,3.38,256.09,8.47,387.55,7.43,3,1.83-.57,1.77-4.37,2.6,39.61-1.92,74.81-1.24,110.87-3.24,10,2,12.75,4.7,15.72,6.54C281.56,1427.77,486.67,1427.37,489.93,1428.32Z"/><path class="cls-1" d="M2155.21,1440.62l-2.61,8c-40.72.12-11.85-9.14-49.5-7.17-14.73,11.31-62.54-1.17-75.55,4.84.29-.9-18.14-1.24-17-4.78-5.65,6.14-19,1.43-30.59,3-4.21,1.71,3.09,1.84,6.24,3.69l-26.63,2.17c-10.41-2-13-5.59-1.66-6.26-69.6-2.2-403.76-8.08-478.74-5,9.64,4.64,32.78,1.5,41.58,8.79-19.82,4.09-29.18-1.43-37.92,2.87-7.61-10.84-43.56-2.6-58.57-13.58l-5.69,6.14-9.85-3.76c-87.18,6.39-19.92,3.12-97.2,1.67-44.73.95-66,9.47-90.87,6.33,3.7.06,13.56,3.83,2,5.39-2-5.39-30.84,3.87-36.49-1.58-11.35.68-48.12,0-35.67,7.36-6.24-3.68-39-5.19-19.52-8.38-11.07-.22-21.79-1.3-29.75.33l14.21,2.06c-37.37,1.07-57.74-4.64-82.08,2l13.81,2.93c-22.34.47-41,1-49.81-6.28l22.94-2.24c-37.06.19-59.41.67-90.29,4.55l11,.2c-39.35,7.29-245.19,13.31-281.45,22.44l16.7,5.66-31.18,4.77c3.69.07,15-18.39,18.14-16.54-66.81.53-414.35,4.92-476.05,1.1-24.9-3.14-4.48-9-4.2-9.89-30.3,2.11-13.07,6-38.83,5.52-7-1,1.46-4.44,5.41-5.25-11.29.67-21.76-1.29-22.62,1.35,14.12,2.05,8.14,9.08,14.12,13.64l-33.14-.61,1.47-4.44c-7.39-.13-18.74,12.13-51.29,9.74-54.91-1.92-114.56-.36-169.78-1.39.86-2.66,12.45-4.23,24.07-5.79-7.4-.14-18.69.55-25.51-1.37,13.34,4.7-23.17,3.13-12.75,5.11-40.45,10.84-92.77.94-128.47,8.3-3.12,9.75-76.45,167.51-76.45,179.1-11.09-.21-22.11-.42-25.5-1.37,2.86,2.73,24.65,4,36.23,2.47l2-6.21c26.64-2.18,6.24,3.69,32.25,3.27,1.39,5.08-22.55,6.17-43.62,6.66,19,.59,37.88,4.3,45.61-1.27,17.84,2.12-2,6.21,19.5,8.39,15.3-1.5,35.4-6.47,53-3.46l-.31.9c42.73,5.25,65.38-7.71,104.43-2.52l-4.2,1.7c13.8,2.94,41-1,65.87,2.13-7.1-1-13.27-4.7,1.69-5.31,28.63,3.21,48.16,0,69.08,4l20.09-5c99.66,1,493.34-6.11,593.46-6.9l-3.92.8c152.55-2.49,465.69-2.1,623.35-9,24.38,4.9,58,3.75,83.45,5.12-14.15-2-9.3-5.52,1.74-5.32,77.51.56,5.23-3.39,83.62-5.48,90.26-4.56,435.7.63,515.83,4.81,43-7.22,96.77-1.76,138.93-6.33l-4.25,1.7c45.28-2.72,301.64,4,354.27,1.39l-7.07-1c45.9-4.49,39.64,3.42,75.81,5.88-4.75-8.11,34.58-12.71,49.58-13.32l-.57,1.77c22.62-1.36,73.85-8.41,111.21-9.49l-1.46,4.44c31.15-4.77,89.72-2.79,112.11-3.25,51.2,1.84,130.16,9.56,198.63,3.7l44.23,12.64,6.48-1.26S3092,1498,3001.54,1465.47L3003,1461l-17.88.57c-21.45-2.18-31.37,3-29.91-1.47l29.39.54c-21.55-1.28-6.5-3.63,1.72-6.13-9-.43-17.73-1-24.9-2.32-4.25,1.7,3.12,1.84,6.48,2.8-11.59,1.56-27.74,5.72-41.85,3.68-22.07-.42-1.41-7.17-27.16-7.65-135.81-3.42-267.41-8.55-404.68-7.56-3.12-1.84.6-1.77,4.56-2.6-41.36,1.91-78.11,1.22-115.77,3.2-10.46-2-13.32-4.71-16.41-6.55C2372.78,1441.24,2158.6,1441.58,2155.21,1440.62Z"/><path class="cls-1" d="M2110.8,1714.19l-2.6,8c-40.29.06-11.72-9.16-49-7.24-14.59,11.29-61.87-1.26-74.76,4.73.29-.9-17.95-1.26-16.79-4.8-5.59,6.13-18.76,1.4-30.27,3-4.17,1.7,3.06,1.84,6.17,3.7l-26.35,2.13c-10.3-2-12.83-5.61-1.63-6.26-68.86-2.3-399.48-8.63-473.67-5.67,9.53,4.65,32.43,1.55,41.13,8.85-19.62,4.06-28.87-1.47-37.52,2.81-7.51-10.85-43.1-2.65-57.93-13.66l-5.63,6.14-9.74-3.77c-86.27,6.28-19.71,3.09-96.18,1.54-44.26.88-65.3,9.38-89.92,6.2,3.66.07,13.41,3.84,1.95,5.4-1.95-5.4-30.52,3.83-36.1-1.63-11.23.67-47.61-.08-35.3,7.31-6.17-3.69-38.63-5.24-19.3-8.41-10.95-.23-21.56-1.33-29.44.29l14.05,2.08c-37,1-57.12-4.72-81.22,1.92l13.66,3c-22.11.44-40.6,1-49.27-6.34l22.7-2.21c-36.67.14-58.78.59-89.34,4.43l10.91.21c-38.94,7.23-242.62,13-278.5,22.05l16.51,5.69-30.86,4.73c3.65.07,14.91-18.37,18-16.52-66.1.44-410,4.36-471,.45-24.63-3.17-4.42-9-4.14-9.89-30,2.07-12.94,6-38.43,5.47-7-1,1.45-4.44,5.36-5.24-11.17.66-21.53-1.32-22.38,1.32,14,2.07,8,9.09,13.95,13.66l-32.78-.65,1.46-4.43c-7.31-.14-18.56,12.1-50.76,9.67-54.33-2-113.35-.52-168-1.62.85-2.66,12.33-4.21,23.83-5.76-7.33-.15-18.49.52-25.23-1.4,13.19,4.72-22.93,3.1-12.62,5.09-40,10.79-91.79.81-127.13,8.12-3.1,9.75-75.87,167.4-75.89,179-11-.23-21.88-.45-25.23-1.41,2.83,2.73,24.38,4.06,35.84,2.52l2-6.21c26.36-2.14,6.17,3.7,31.9,3.31,1.36,5.08-22.32,6.14-43.17,6.6,18.78.62,37.47,4.35,45.13-1.21,17.64,2.14-2,6.21,19.28,8.41,15.14-1.48,35-6.42,52.42-3.39l-.31.9c42.27,5.31,64.7-7.62,103.32-2.38l-4.16,1.69c13.65,3,40.54-1,65.17,2.22-7-1-13.13-4.72,1.68-5.31,28.32,3.25,47.65.07,68.34,4.05l19.88-5c98.61,1.11,488.13-5.43,587.19-6.09l-3.88.79c150.93-2.28,460.76-1.47,616.76-8.11,24.12,4.93,57.4,3.83,82.56,5.23-14-2.06-9.2-5.53,1.73-5.32,76.69.67,5.18-3.38,82.74-5.37,89.31-4.43,431.09,1.22,510.37,5.51,42.59-7.17,95.75-1.63,137.47-6.14l-4.2,1.7c44.81-2.66,298.44,4.39,350.52,1.88l-7-1c45.42-4.42,39.22,3.47,75,6-4.69-8.11,34.23-12.66,49.07-13.25l-.56,1.77c22.38-1.33,73.08-8.31,110-9.34l-1.45,4.43c30.83-4.72,88.78-2.66,110.93-3.1,50.66,1.91,128.77,9.73,196.52,4l43.75,12.7,6.41-1.25s70.69-152.54-18.73-185.17l1.43-4.42-17.69.55c-21.22-2.21-31,2.91-29.6-1.51l29.08.58c-21.32-1.31-6.43-3.64,1.71-6.13-8.9-.44-17.54-1-24.63-2.35-4.2,1.7,3.09,1.84,6.4,2.81-11.47,1.54-27.45,5.68-41.41,3.62-21.84-.45-1.38-7.17-26.86-7.69-134.37-3.61-264.57-8.92-400.39-8.11-3.09-1.84.59-1.77,4.52-2.59-40.92,1.85-77.29,1.11-114.55,3-10.35-2-13.17-4.73-16.23-6.57C2326.07,1715.11,2114.16,1715.16,2110.8,1714.19Z"/><path class="cls-1" d="M382.44,1794.44l2.73-8c42.59-.13,12.4,9.14,51.78,7.15,15.4-11.31,65.4,1.14,79-4.87-.31.9,19,1.23,17.75,4.77,5.9-6.14,19.83-1.43,32-3,4.41-1.71-3.23-1.83-6.53-3.68l27.85-2.18c10.89,2,13.58,5.58,1.74,6.25,72.79,2.17,422.28,7.9,500.69,4.81-10.08-4.63-34.29-1.49-43.49-8.78,20.73-4.1,30.52,1.42,39.66-2.88,8,10.84,45.56,2.58,61.26,13.55l5.94-6.15,10.3,3.76c91.17-6.43,20.83-3.13,101.66-1.71,46.78-1,69-9.5,95-6.37-3.87-.06-14.18-3.82-2.07-5.39,2.07,5.39,32.26-3.89,38.16,1.56,11.87-.69,50.32,0,37.3-7.38,6.53,3.68,40.84,5.17,20.42,8.38,11.57.21,22.79,1.29,31.12-.34l-14.86-2c39.09-1.09,60.39,4.61,85.84-2.07l-14.44-2.93c23.37-.48,42.91-1,52.09,6.26l-24,2.25c38.76-.2,62.13-.69,94.43-4.59l-11.53-.2c41.15-7.31,256.43-13.42,294.35-22.56l-17.47-5.66,32.61-4.78c-3.86-.07-15.73,18.4-19,16.55,69.87-.56,433.35-5.1,497.88-1.31,26,3.13,4.69,9,4.39,9.89,31.68-2.13,13.67-6,40.61-5.54,7.35,1-1.52,4.44-5.66,5.25,11.81-.68,22.76,1.28,23.66-1.36-14.76-2-8.52-9.07-14.77-13.63l34.66.59-1.53,4.44c7.73.13,19.59-12.14,53.63-9.77,57.43,1.9,119.81.31,177.57,1.32-.9,2.66-13,4.24-25.18,5.8,7.74.13,19.54-.55,26.68,1.36-13.95-4.69,24.24-3.14,13.33-5.12,42.3-10.86,97-1,134.36-8.35,3.26-9.75,79.88-167.54,79.88-179.14,11.6.21,23.13.41,26.67,1.36-3-2.73-25.78-4-37.89-2.45l-2.09,6.21c-27.86,2.19-6.53-3.69-33.73-3.25-1.45-5.08,23.58-6.18,45.62-6.68-19.85-.58-39.62-4.28-47.7,1.29-18.65-2.11,2.07-6.21-20.4-8.38-16,1.5-37,6.49-55.4,3.49l.33-.9c-44.69-5.23-68.38,7.74-109.21,2.57l4.4-1.7c-14.44-2.94-42.85,1-68.89-2.1,7.43,1,13.89,4.7-1.77,5.31-29.94-3.19-50.37,0-72.25-3.93l-21,5c-104.23-.93-516,6.32-620.67,7.16l4.1-.8c-159.54,2.55-487,2.31-651.93,9.23-25.5-4.89-60.68-3.72-87.28-5.08,14.8,2,9.73,5.52-1.82,5.32-81.07-.53-5.47,3.39-87.45,5.52-94.4,4.6-455.68-.44-539.49-4.58-45,7.24-101.2,1.8-145.3,6.39l4.44-1.71c-47.36,2.74-315.47-3.84-370.52-1.24l7.4,1c-48,4.51-41.46-3.4-79.29-5.85,5,8.1-36.16,12.72-51.84,13.34l.59-1.77c-23.65,1.37-77.24,8.44-116.3,9.54l1.53-4.44c-32.58,4.78-93.84,2.82-117.25,3.3-53.55-1.81-136.14-9.5-207.74-3.61l-46.26-12.62-6.77,1.26s-74.43,152.67,20.15,185.14l-1.5,4.42,18.7-.58c22.44,2.17,32.81-3,31.29,1.45l-30.74-.53c22.54,1.27,6.8,3.63-1.8,6.13,9.41.42,18.55,1,26,2.31,4.44-1.7-3.27-1.83-6.77-2.8,12.12-1.57,29-5.73,43.77-3.7,23.08.41,1.47,7.17,28.41,7.64,142,3.36,279.68,8.44,423.24,7.38,3.27,1.83-.62,1.77-4.77,2.6,43.25-1.93,81.69-1.25,121.08-3.25,10.94,2,13.93,4.7,17.16,6.54C154.89,1793.91,378.89,1793.48,382.44,1794.44Z"/><path class="cls-1" d="M2287.48,1329.34l-2.45,8c-38.45.2-11.22-9.12-46.76-7.07-13.88,11.34-59.05-1-71.33,5,.28-.9-17.13-1.2-16-4.74-5.32,6.15-17.9,1.47-28.88,3-4,1.71,2.92,1.84,5.9,3.68l-25.15,2.18c-9.84-2-12.26-5.59-1.57-6.25-16.43-.55-48.47-1.33-88.4-2.14s-87.74-1.61-135.71-2.43-96.1-1.39-136.66-1.63-73.56-.23-91.26.48c9.08,4.67,30.95,1.63,39.23,9-18.73,4-27.55-1.54-35.82,2.72-7.14-10.87-41.13-2.76-55.25-13.8l-5.4,6.12-9.28-3.8c-41.17,3-45.88,3.79-49.41,3.58s-5.89-1.38-42.38-2.34c-42.24.69-62.36,9.09-85.84,5.8,3.49.09,12.78,3.9,1.83,5.4-1.83-5.4-29.15,3.69-34.45-1.79-10.72.62-45.44-.29-33.74,7.15-5.87-3.7-36.84-5.44-18.37-8.5-10.45-.3-20.56-1.47-28.1.1l13.4,2.17c-35.3.78-54.49-5.09-77.53,1.4l13,3c-21.1.29-38.76.7-47-6.66l21.68-2.07c-35-.1-56.1.21-85.3,3.85l10.41.29c-18.61,3.54-76.53,6.21-134.09,9.2-28.78,1.48-57.47,3-81.12,4.75s-42.24,3.54-50.83,5.72l15.71,5.86L861.06,1369c3.49.11,14.43-18.21,17.33-16.33l-88.69-.16-66-.16-72-.43c-48.62-.36-97.09-.84-137-1.54s-71.38-1.73-85.94-2.92c-23.46-3.52-4.08-9.06-3.8-10-28.64,1.64-12.44,5.8-36.76,4.92-6.62-1.13,1.45-4.42,5.2-5.16-10.67.5-20.52-1.63-21.38,1,13.3,2.27,7.53,9.2,13.1,13.86L353.84,1351l1.46-4.41c-7-.26-17.9,11.86-48.61,8.93-51.83-2.88-108.19-2.36-160.32-4.36.86-2.64,11.84-4,22.85-5.37-7-.27-17.66.22-24.06-1.81,12.5,4.93-21.95,2.72-12.14,4.89-38.41,10.12-87.64-.84-121.5,5.84-3.12,9.69-75.74,166-76,177.58-10.49-.43-20.91-.85-24.1-1.87,2.65,2.78,23.24,4.51,34.23,3.17l2-6.17c25.26-1.66,5.83,3.81,30.44,3.9,1.21,5.11-21.46,5.73-41.42,5.81,17.94,1,35.75,5,43.18-.38,16.83,2.46-2,6.17,18.28,8.77,14.51-1.2,33.63-5.78,50.2-2.43l-.31.89c40.33,6.07,62-6.41,98.87-.56l-4,1.63c13,3.18,38.79-.29,62.29,3.28-6.7-1.15-12.47-4.94,1.7-5.28,27,3.71,45.57.84,65.3,5.17l19.1-4.63c23.57.72,64.55,1.07,114.22,1.37s108.06.47,166.46.38l166.54-.22c49.73-.15,90.79-.23,114.48-.14l-3.72.75c18-.09,38.47-.1,60.68-.07l71.42.08c50.42.07,105.66.31,161.05.25s110.94-.3,162-.85,97.53-1.61,134.84-3.09c23,5,54.88,4.08,78.94,5.6-13.38-2.13-8.77-5.57,1.68-5.31,73.35.87,5-3.37,79.15-5.16,21.36-1.05,57.8-1.43,101.64-1.34s95.07.48,146,1.23c25.47.36,50.86.8,75.22,1.27s47.68.9,69,1.4c42.64,1,77.29,2.11,96.25,3.15,40.72-7.18,91.57-1.9,131.46-6.53l-4,1.71c10.71-.7,33.91-.84,63.45-.7l48.32.39,53.24.5c72.23.69,145.33,1.48,170.23,0l-6.7-1c43.4-4.76,37.53,3.19,71.77,5.44-4.55-8.08,32.64-12.91,46.83-13.61l-.53,1.78c21.39-1.5,69.82-8.81,105.15-10.23l-1.35,4.45c29.44-5,84.86-3.49,106-4.13,48.46,1.5,123.24,8.4,188,1.88l42,12.21,6.11-1.32s16.42-38.33,22.09-80.61.6-88.52-42.28-104.33l1.31-4.44-16.88.75c-20.28-2-29.6,3.26-28.27-1.18l27.76.25c-20.37-1.07-6.18-3.56,1.56-6.15-8.5-.34-16.76-.79-23.53-2.07-4,1.74,3,1.81,6.14,2.73-10.93,1.67-26.13,6-39.48,4.09-20.85-.2-1.4-7.15-25.72-7.38-64.14-1-127.29-2.69-190.6-3.73s-126.78-1.68-191.59-.78c-3-1.82.55-1.77,4.29-2.62-39,2.13-73.75,1.72-109.3,3.83-9.89-1.94-12.6-4.66-15.52-6.48,2.94,1.82-46.14,3-96.37,3.66-25.11.31-50.51.5-69.83.51S2288.28,1329.57,2287.48,1329.34Z"/><path class="cls-1" d="M2806,1406.54l1-.3A.7.7,0,0,0,2806,1406.54Z"/><path class="cls-1" d="M2977.84,1176.67l-.18,8c-2.8.12-.82-9.14-3.4-7.17-1,11.31-4.3-1.17-5.2,4.84,0-.9-1.25-1.24-1.17-4.78-.39,6.14-1.3,1.43-2.1,3-.29,1.71.21,1.84.43,3.69l-1.83,2.17c-.72-2-.89-5.59-.11-6.26-4.79-2.2-27.77-8.08-32.93-5,.66,4.64,2.25,1.5,2.86,8.79-1.36,4.09-2-1.43-2.61,2.87-.52-10.84-3-2.59-4-13.58l-.39,6.14-.68-3.76c-6,6.39-1.37,3.12-6.69,1.67-3.08.94-4.54,9.47-6.25,6.33.25.06.93,3.83.14,5.39-.14-5.39-2.12,3.87-2.51-1.58-.78.68-3.31,0-2.45,7.36-.43-3.68-2.69-5.19-1.34-8.38-.76-.22-1.5-1.3-2,.33l1,2.06c-2.57,1.07-4-4.64-5.65,2l.95,2.93c-1.54.47-2.82,1-3.43-6.28l1.58-2.24c-2.55.19-4.09.67-6.21,4.55l.76.2c-2.71,7.29-16.87,13.31-19.36,22.44l1.15,5.66-2.14,4.77c.25.07,1-18.39,1.25-16.54-4.6.53-28.5,4.92-32.74,1.1-1.71-3.14-.31-9-.29-9.89-2.08,2.11-.9,6-2.67,5.52-.48-1,.1-4.44.37-5.25-.78.67-1.5-1.29-1.56,1.35,1,2.05.56,9.08,1,13.64l-2.28-.61.1-4.44c-.51-.13-1.29,12.13-3.53,9.74-3.78-1.92-7.88-.36-11.68-1.39a12,12,0,0,1,1.66-5.79c-.51-.14-1.29.55-1.75-1.37.92,4.7-1.59,3.13-.88,5.11-2.78,10.84-6.38.94-8.84,8.3-.21,9.75-5.26,167.51-5.26,179.1-.76-.21-1.52-.42-1.75-1.37.2,2.73,1.7,4,2.49,2.47l.14-6.21c1.83-2.18.43,3.69,2.22,3.27.1,5.08-1.55,6.17-3,6.66,1.31.59,2.61,4.3,3.14-1.27,1.23,2.12-.14,6.21,1.34,8.39,1.05-1.5,2.43-6.47,3.64-3.46l0,.9c2.94,5.25,4.5-7.71,7.18-2.52l-.29,1.7c.95,2.94,2.82-1,4.53,2.13-.49-1-.91-4.7.12-5.31,2,3.21,3.31,0,4.75,4l1.38-5c6.86,1,33.93-6.11,40.82-6.9l-.27.8c10.49-2.49,32-2.1,42.88-9,1.68,4.9,4,3.75,5.74,5.12-1-2-.64-5.52.12-5.32,5.33.56.36-3.39,5.75-5.48,6.21-4.56,30,.63,35.48,4.81,3-7.22,6.66-1.76,9.56-6.33l-.29,1.7c3.11-2.72,20.75,4,24.37,1.39l-.49-1c3.16-4.49,2.73,3.42,5.21,5.88-.33-8.11,2.38-12.71,3.41-13.32l0,1.77c1.56-1.37,5.08-8.41,7.65-9.49l-.1,4.44c2.14-4.77,6.17-2.79,7.71-3.25,3.52,1.84,9,9.56,13.66,3.7l3,12.64.45-1.26s4.9-152.63-1.32-185.14l.1-4.42-1.23.57c-1.48-2.18-2.16,3-2.06-1.47l2,.54c-1.48-1.28-.45-3.63.12-6.13a4.23,4.23,0,0,1-1.71-2.32c-.29,1.7.21,1.84.45,2.8-.8,1.56-1.91,5.72-2.88,3.68-1.52-.42-.1-7.17-1.87-7.65-9.34-3.42-18.39-8.56-27.83-7.56a3.62,3.62,0,0,1,.31-2.59c-2.84,1.91-5.37,1.22-8,3.2a31,31,0,0,1-1.13-6.55C2992.8,1177.29,2978.07,1177.63,2977.84,1176.67Z"/><path class="cls-1" d="M1129.4,1190.29l-6.72.42A24.92,24.92,0,0,0,1129.4,1190.29Z"/><path class="cls-1" d="M-76.75,1359.72l2.69-7.63c4.9.89,7.61,1.93,9.23,3a6.49,6.49,0,0,1,2.54,3.4c.89,2.23,1.65,4.21,11,4.78,9.1-9.93,30.26,6.29,37.59,1.43-.29.86,8.63,2.71,7.5,6.11,3.72-5.62,9.46.18,15.37-.49,2.32-1.4-1.23-2-2.47-4.11,4.43,0,8.87-.16,13.29-.23,4.77,2.69,5.48,6.44-.14,6.3,8.4,1.78,24.83,4.95,45.35,8.74L81.3,1384c5.58,1,11.36,1.83,17.26,2.78l36.52,5.63,18.51,2.76c6.14,1,12.22,1.61,18.18,2.37,11.93,1.46,23.38,2.81,33.87,4s20,2.12,28.05,2.82,14.62.87,19.23.89c-4.29-5-15.87-2.81-19.48-10.51,10-3.18,14.09,2.64,18.73-1.26,2.75,11.11,21,4.38,27.39,15.94l3.28-5.89,4.5,4.15c21.53-1.4,24-1.95,25.81-1.65s2.94,1.58,21.72,3.58c21.88.53,32.76-7.28,44.67-3.34-1.8-.18-6.36-4.26-.63-5.45.32,2.72,4.13,2,8.16,1.32s8.27-1.48,9.48,1.31c5.55-.39,23.37,1.23,17.73-6.45,2.82,3.83,18.68,6.17,9,8.86,5.36.5,10.52,1.85,14.47.42l-6.8-2.41c9.1-.06,16.05,1.46,22.25,2.24a40.6,40.6,0,0,0,8.9.33,24,24,0,0,0,8.78-2.63l-6.56-3.19c10.85-.05,19.91-.26,23.87,7.19L477,1409.59c18,.5,28.85.44,44-2.88l-5.34-.4c4.83-1.66,14.71-3,27.05-4.31s27.15-2.75,41.91-4.14c29.54-2.66,58.75-6.15,67.55-10.56l-7.95-5.79,15.07-4.54c-1.77-.09-7.52,18.28-9,16.41,8,0,24.57-.08,45.25-.29s45.51-.62,70.27-.83c24.72-.38,49.36-.63,69.68-.54s36.25.3,43.65,1.21c12,3,2.22,9,2.09,9.87,14.52-2.23,6.22-6.05,18.58-5.66,3.38,1-.66,4.45-2.55,5.27,5.41-.71,10.45,1.21,10.84-1.44-6.79-2-4-9-6.9-13.59l15.88.48-.66,4.44c3.54.09,8.84-12.24,24.43-10,26.29,1.6,54.81-.29,81.18.29-.37,2.67-5.88,4.32-11.41,6,3.54.08,8.92-.68,12.2,1.18-6.44-4.6,11-3.3,6-5.2,19.15-11.13,44.29-1.62,61.18-9.28,1.34-9.78,33.59-168.1,33.38-179.7,5.28.12,10.53.24,12.16,1.17-1.41-2.7-11.8-3.83-17.28-2.17l-.84,6.23c-12.64,2.4-3-3.64-15.4-3-.75-5.07,10.62-6.35,20.64-7-9-.44-18.1-4-21.68,1.64-8.52-2,.84-6.23-9.42-8.23-7.25,1.62-16.73,6.76-25.15,3.89l.13-.9c-20.39-4.92-30.92,8.19-49.54,3.29l2-1.73c-6.59-2.84-19.43,1.31-31.3-1.64,3.39,1,6.37,4.61-.73,5.32-13.6-3-22.81.28-32.77-3.56l-9.45,5.09c-11.8-.1-32.33.45-57.11,1.14l-83,2.66L761.5,1199l-39.8,1c-12.37.29-23.67.61-33.33.75s-17.69.2-23.57.2l1.85-.77c-35.86.78-90.51.26-145.29-.71l-80-1.31c-12.6-.17-24.64-.24-35.86-.17-5.61.07-11,0-16.12.05s-10,.1-14.64.22c-11-5.65-26.73-5.56-38.46-7.72,6.43,2.48,3.93,5.8-1.2,5.25-9-.7-13.66-1-16.17-.9s-2.86.59-3.24,1.15c-.75,1.12-1.57,2.57-19.86,2.08-5.29.13-12.42-.06-20.92-.48-4.25-.21-8.84-.49-13.72-.82l-7.52-.54-7.87-.76c-10.73-1.06-22.35-2.32-34.4-3.72L193,1189.67l-9.29-1.15c-3.11-.38-6.19-.89-9.29-1.33-12.37-1.84-24.69-3.74-36.5-5.62l-17.27-2.8c-5.59-.92-11-1.81-16.11-2.85-20.52-4-37.13-7.52-46.15-9.88a66.74,66.74,0,0,1-16.06,1.1c-2.74-.08-5.48-.38-8.23-.73s-5.51-.77-8.25-1.2C14.88,1163.46,4,1161.4-6,1162l2.23-1.35c-5.28-.22-16.47-2-30.7-4.63-7.13-1.42-15-3.06-23.29-4.8l-25.92-5.65-26.39-5.78c-8.67-1.86-17-3.62-24.61-5.17s-14.65-2.84-20.48-3.85-10.55-1.69-13.84-1.92l3.26,1.62c-11.56.27-16.23-1.41-20.18-3.84-2-1.22-3.76-2.62-6.14-4.07a43,43,0,0,0-9.79-4.2c.52,4.19-4.26,6.64-10.08,8a57.78,57.78,0,0,1-9,1.24,61.41,61.41,0,0,1-7.51.11l.54-1.71c-5.76-.12-15.22.57-25.66,1.26-5.25.39-10.72.74-16.06.92s-10.51.15-15.32,0l1.22-4.34a76.29,76.29,0,0,1-14.28,1c-5.26,0-10.82-.42-16.36-.69s-10.86-.77-15.56-1.15l-6.5-.51c-2-.15-3.73-.16-5.19-.18-6.65-.74-14.21-1.88-22.38-3.1l-3.1-.45-3.18-.36-6.52-.72c-4.41-.47-8.93-.92-13.54-1.3-18.46-1.31-38.42-1.07-56.67,3.45l-6.24-2.7c-2.09-.89-4.18-1.83-6.3-2.61l-12.82-4.85-3.42,1.67s-1.31,9.77-2.17,24.8a458,458,0,0,0,.25,56.39c.74,10.56,1.84,21.32,3.46,31.73a244.13,244.13,0,0,0,6.41,29.64c5.29,18.38,12.53,33.29,22.34,40.28l-.1,4.47,3.49-.72c1.16-.24,2.32-.5,3.52-.65,8.77,1.57,12.37-3.86,12.1.59l-11.8.31c8.74.66,2.89,3.43-.11,6.15,3.6.18,7.1.46,10,1.6,1.55-1.82-1.37-1.74-2.77-2.6,2.23-.94,4.88-2.57,7.71-3.77s5.8-2,8.73-1c9,.15.9,7.15,11.24,7.31,27.29,1,54.74,4.25,82.87,8.38l21.25,3.24q10.78,1.82,21.62,3.45c7.31,1.22,14.68,2.44,22.08,3.55,3.68.52,7.48,1.19,11.24,1.76s7.56,1.16,11.36,1.71c1.08,2-.55,1.7-2.43,2.24q3.48.2,6.85.49c2.25.19,4.52.47,6.74.73,4.45.53,8.8,1.13,13.09,1.72l12.87,1.72c4.31.54,8.62,1,13,1.29,4.39,2.82,5.19,5.74,6.26,7.8-.55-1,5.21-.67,14.17.48,4.5.58,9.72,1.33,15.51,2.25s12,2,18.22,3l18.59,3.32,16.5,3.1C-83.85,1358-77.11,1359.41-76.75,1359.72Z"/><path class="cls-1" d="M1303.56,1161.72c-3.76-4.69-9.94-4.93-15.81-5.53C1292.42,1160.65,1297.27,1162.48,1303.56,1161.72Z"/><path class="cls-1" d="M1287.63,1156.09a.63.63,0,0,1-.09.07,1.17,1.17,0,0,1,.21,0A1.28,1.28,0,0,1,1287.63,1156.09Z"/><path class="cls-1" d="M149.58,1380.73l4.87-.2A13.13,13.13,0,0,0,149.58,1380.73Z"/><path class="cls-1" d="M1004.45,1150.59l-.71,8c-13.85.41-4.23-9.06-17-6.81-4.77,11.41-21.29-.72-25.6,5.38.08-.9-6.2-1.11-5.87-4.66-1.8,6.18-6.42,1.56-10.35,3.21-1.4,1.73,1.09,1.82,2.19,3.64l-9,2.33c-3.58-1.91-4.52-5.51-.68-6.24-5.93-.45-17.49-1-31.88-1.59s-31.63-1.08-48.92-1.55-34.63-.73-49.24-.68-26.49.33-32.86,1.17c3.33,4.6,11.17,1.39,14.24,8.65-6.7,4.15-9.95-1.33-12.87,3-2.7-10.82-14.85-2.45-20.06-13.38l-1.88,6.16-3.39-3.73c-29.6,6.67-6.75,3.23-33,2-15.21,1-22.38,9.61-30.87,6.52,1.26.06,4.64,3.8.7,5.39-.7-5.39-10.48,3.94-12.43-1.5-3.86.7-16.38.09-12.11,7.44-2.14-3.66-13.31-5.12-6.68-8.34-3.77-.21-7.42-1.28-10.12.35l4.84,2c-12.72,1.1-19.67-4.59-27.93,2.1l4.71,2.92c-7.61.48-14,1.05-17-6.24l7.8-2.26c-12.61.22-20.21.72-30.72,4.63l3.75.19c-6.69,3.69-27.56,7-48.31,10.5-10.38,1.77-20.72,3.59-29.25,5.54s-15.23,4-18.33,6.25l5.67,5.69-10.65,4.71c1.26.07,5.2-18.37,6.25-16.51l-32,.77-23.79.54-26,.37c-17.54.19-35,.25-49.44,0s-25.75-.88-31-1.9c-8.44-3.24-1.41-9-1.31-9.91-10.34,2-4.53,6-13.29,5.36-2.38-1.05.55-4.43,1.91-5.23-3.85.62-7.39-1.38-7.72,1.26,4.78,2.11,2.65,9.11,4.63,13.7l-11.28-.75.56-4.43c-2.51-.17-6.55,12.06-17.61,9.51-18.69-2.22-39-1-57.84-2.33.34-2.65,4.32-4.16,8.3-5.66-2.52-.18-6.38.44-8.67-1.51,4.46,4.77-8,3-4.43,5-14,10.61-31.63.32-43.94,7.45-.63,4.86-8,46.6-15.26,88.57s-14.49,84.17-14.61,90c-3.81-.29-7.6-.57-8.74-1.55.92,2.75,8.39,4.2,12.41,2.72l.82-6.2c9.21-2,2.07,3.73,11,3.49.37,5.09-7.88,6-15.15,6.36,6.52.72,12.95,4.56,15.72-1,6.09,2.24-.81,6.2,6.54,8.52,5.3-1.39,12.31-6.23,18.3-3.1l-.12.89c14.61,5.54,22.64-7.24,36-1.85l-1.48,1.68c4.7,3,14.12-.78,22.64,2.49-2.43-1.06-4.49-4.78.67-5.3,9.8,3.36,16.57.27,23.72,4.34l7-4.87c8.57.41,23.47.29,41.54,0s39.31-.83,60.54-1.56l60.56-2.07c18.08-.67,33-1.19,41.62-1.34l-1.35.79c13.12-.55,29.7-.91,48-1.33s38.41-.74,58.55-1.32,40.32-1.31,58.86-2.32,35.43-2.44,49-4.23c8.42,4.85,20,3.62,28.74,4.94-4.88-2-3.24-5.5.56-5.32,26.66.3,1.77-3.41,28.71-5.77,7.75-1.22,21-1.88,36.91-2.13s34.54-.19,53.06.19c9.26.19,18.49.44,27.34.75s17.33.6,25.09,1c15.51.73,28.12,1.62,35,2.55,14.66-7.45,33.24-2.42,47.64-7.28l-1.42,1.73c3.88-.76,12.3-1,23-1.05,5.37,0,11.32,0,17.56.12l19.36.24c26.26.35,52.84.76,61.85-.82l-2.46-1c15.65-4.94,13.72,3,26.22,5.14-1.86-8.06,11.52-13,16.66-13.8l-.14,1.78c7.73-1.59,25.12-9.11,37.91-10.63l-.36,4.45c10.55-5.11,30.72-3.78,38.4-4.49,17.64,1.31,45,8,68.34,1.32l15.66,12.08,2.18-1.33s4.69-38.35,5.31-80.62-2.79-88.46-18.77-104.16l.33-4.44-6.06.79c-7.38-1.92-10.57,3.33-10.23-1.1l10,.18c-7.38-1-2.35-3.55.36-6.15a24.42,24.42,0,0,1-8.55-2c-1.38,1.75,1.13,1.8,2.3,2.72-3.89,1.7-9.23,6.06-14.11,4.19-7.52-.15-.73-7.15-9.51-7.31-23.16-.84-46-2.3-68.81-3.13s-45.73-1.21-69.06-.05c-1.11-1.8.15-1.78,1.48-2.64-14,2.3-26.53,2-39.28,4.29-3.61-1.89-4.65-4.6-5.75-6.41C1078.46,1149.41,1005.63,1151.61,1004.45,1150.59Z"/><path class="cls-1" d="M1186.73,1282c1.47,1.45,4,1.59,6.41,1.83A9.05,9.05,0,0,0,1186.73,1282Z"/><path class="cls-1" d="M1193.18,1283.82l0,0h-.08Z"/><path class="cls-1" d="M1659.22,1219l-2,.09A7.19,7.19,0,0,0,1659.22,1219Z"/><path class="cls-1" d="M1309.53,1288l.37-2.4c5.7,0,1.66,2.74,6.93,2.15,2.06-3.39,8.75.35,10.57-1.45,0,.27,2.54.37,2.38,1.43.79-1.84,2.65-.43,4.28-.9.59-.51-.43-.55-.87-1.11l3.73-.65c1.46.59,1.82,1.68.23,1.88,9.74.66,56.5,2.42,67,1.51-1.35-1.39-4.59-.45-5.82-2.64,2.77-1.23,4.08.43,5.31-.86,1.06,3.25,6.1.78,8.2,4.07l.8-1.84,1.38,1.13c12.2-1.92,2.79-.94,13.6-.5,6.26-.28,9.23-2.84,12.72-1.9-.52,0-1.9-1.15-.28-1.62.28,1.62,4.32-1.16,5.11.47,1.59-.2,6.73,0,5-2.21.87,1.1,5.46,1.56,2.73,2.52,1.55.07,3,.39,4.16-.1l-2-.62c5.23-.32,8.08,1.39,11.49-.61l-1.93-.88c3.13-.14,5.74-.31,7,1.88l-3.21.67c5.19-.06,8.31-.2,12.64-1.37l-1.54-.06c5.51-2.19,34.31-4,39.39-6.73l-2.34-1.7,4.36-1.43c-.52,0-2.11,5.52-2.54,5,9.35-.16,58-1.48,66.62-.33,3.48.94.63,2.7.59,3,4.24-.63,1.83-1.8,5.43-1.66,1,.31-.2,1.33-.76,1.57,1.58-.2,3,.39,3.17-.41-2-.62-1.14-2.72-2-4.09l4.64.18-.21,1.33c1,0,2.62-3.64,7.18-2.92,7.69.58,16,.11,23.76.42-.12.8-1.74,1.27-3.37,1.74,1,0,2.62-.16,3.57.41-1.87-1.41,3.24-.94,1.78-1.53,5.66-3.25,13-.28,18-2.49.44-2.93,10.7-50.25,10.7-53.73a11.92,11.92,0,0,1,3.57.41c-.4-.82-3.45-1.21-5.07-.74l-.28,1.86c-3.73.65-.87-1.11-4.51-1-.19-1.52,3.16-1.85,6.11-2-2.66-.18-5.3-1.29-6.38.38-2.5-.63.28-1.86-2.73-2.52-2.14.45-5,1.94-7.41,1l0-.27c-6-1.57-9.15,2.31-14.61.76l.59-.51c-1.93-.88-5.73.3-9.22-.64,1,.31,1.86,1.41-.24,1.59-4-1-6.74,0-9.67-1.19l-2.81,1.49c-13.95-.29-69,1.83-83.05,2.07l.55-.24c-21.35.75-65.17.63-87.23,2.69-3.41-1.47-8.12-1.12-11.68-1.54,2,.61,1.3,1.66-.24,1.6-10.85-.17-.73,1-11.7,1.64-12.63,1.37-61-.19-72.19-1.44-6,2.17-13.54.53-19.44,1.9l.59-.51c-6.34.82-42.21-1.19-49.58-.42l1,.31c-6.42,1.35-5.55-1-10.61-1.76.67,2.43-4.84,3.81-6.94,4l.08-.53c-3.17.41-10.34,2.52-15.56,2.85l.2-1.33c-4.36,1.43-12.56.84-15.69,1-7.17-.55-18.22-2.87-27.8-1.11l-6.19-3.79-.91.38s-10,45.79,2.69,55.54l-.2,1.33,2.5-.17c3,.65,4.39-.89,4.19.44l-4.11-.16c3,.38.91,1.09-.24,1.84a13,13,0,0,1,3.48.7c.59-.51-.44-.55-.91-.84,1.62-.47,3.88-1.72,5.86-1.1,3.09.13.2,2.15,3.8,2.29,19,1,37.42,2.57,56.63,2.27.44.55-.08.53-.64.78,5.79-.57,10.93-.37,16.2-1a4.71,4.71,0,0,1,2.3,2C1279.08,1287.8,1309.05,1287.7,1309.53,1288Z"/><path class="cls-1" d="M1333.51,1230.94c.43,1.53,1.54,1.86,2.59,2.27C1335.49,1231.7,1334.7,1231,1333.51,1230.94Z"/><path class="cls-1" d="M1336.11,1233.24l0,0,0,0Z"/><path class="cls-1" d="M1549.12,1188.56l-.87.06A1.42,1.42,0,0,0,1549.12,1188.56Z"/><path class="cls-1" d="M1388,1245l.47-2.36c2.58.29.4,2.82,2.86,2.53,1.36-3.25,3.92.85,5-.84-.05.27,1.1.51.9,1.56.58-1.78,1.25-.27,2-.65.33-.48-.13-.57-.26-1.15l1.77-.44c.59.67.62,1.76-.12,1.88,2.17.58,8.5,2,14.91,3.08s12.9,2,15.33,1.79c-.47-1.45-2-.66-2.37-2.89,1.38-1.09,1.81.61,2.5-.61.16,3.28,2.69,1.05,3.32,4.43l.54-1.8.52,1.19c5.73-1.36,1.35-.79,6.23.1,2.87,0,4.46-2.44,6-1.36-.23,0-.76-1.22,0-1.62,0,1.62,2.06-1,2.27.68.74-.14,3.06.28,2.46-2,.3,1.14,2.34,1.77,1,2.62.7.12,1.35.5,1.9.06l-.85-.69c2.4-.12,3.55,1.69,5.27-.17l-.8-.95c1.43,0,2.63-.09,3,2.14l-1.51.55a10.18,10.18,0,0,0,5.85-.88l-.7-.12c2.68-2,15.88-2.79,18.36-5.39l-.94-1.77,2.07-1.3c-.23,0-1.33,5.44-1.49,4.88,4.25.16,26.36.19,30.22,1.45,1.53,1,.15,2.71.12,3,2-.54.92-1.76,2.55-1.53.43.33-.16,1.33-.42,1.56.73-.17,1.37.45,1.46-.34-.87-.66-.39-2.75-.7-4.13l2.09.29-.15,1.32c.47.06,1.36-3.57,3.38-2.77,3.46.72,7.26.4,10.74.85-.08.8-.84,1.24-1.59,1.67.47.06,1.19-.12,1.6.48-.79-1.44,1.51-.88.87-1.5,2.68-3.15,5.89-.09,8.23-2.22l3.3-26.57c1.55-12.59,3-25.25,3.08-27,.68.08,1.35.17,1.55.46a1.58,1.58,0,0,0-2.2-.81l-.18,1.86c-1.65.6-.35-1.12-1.95-1,0-1.53,1.44-1.81,2.73-1.91-1.16-.21-2.28-1.36-2.8.29-1.07-.67.18-1.86-1.11-2.55-.95.42-2.22,1.87-3.27.94l0-.27c-2.55-1.66-4.08,2.19-6.41.53l.28-.5c-.81-.92-2.51.2-4-.8.42.32.75,1.44-.17,1.59-1.71-1-2.94-.12-4.17-1.36l-1.29,1.44c-3-.28-10.59-.17-18.16-.07s-15.15.2-18.22.11l.26-.22c-9.38.14-28.49-1.47-38.3-.37-1.35-1.6-3.44-1.44-5-2,.8.69.41,1.7-.26,1.58-4.72-.64-.42,1-5.27,1.13-5.66.88-26.6-3-31.32-4.88-2.89,1.86-6-.2-8.7.84l.32-.47c-2.87.5-18.21-3.58-21.51-3.27l.39.37c-3,.93-2.27-1.36-4.36-2.41-.05,2.45-2.64,3.47-3.58,3.52l.11-.52c-1.43.21-4.86,1.86-7.19,1.82l.29-1.3c-2.11,1.13-5.59,0-7-.07-3-1-7.47-4.07-11.9-3l-2.07-4.17-.45.31s-2.94,11.12-5.41,23.55-4.45,26.18-2.39,31.45l-.3,1.3h1.15c1.24.86,2.11-.56,1.81.74l-1.82-.46c1.29.6.23,1.14-.4,1.8a3.36,3.36,0,0,1,1.46.94c.35-.46-.11-.58-.27-.89.8-.34,2-1.41,2.81-.67,1.37.35-.25,2.14,1.35,2.54,8.39,2.38,16.48,5.16,25.21,6.1.12.57-.11.52-.4.73,2.7-.2,5,.36,7.46.09a4.22,4.22,0,0,1,.77,2.09C1374.26,1243,1387.84,1244.74,1388,1245Z"/><path class="cls-1" d="M-1.84,1227.46c1.22,1.32,3,1.27,4.73,1.32A5.23,5.23,0,0,0-1.84,1227.46Z"/><path class="cls-1" d="M2.92,1228.81l0,0H2.89Z"/><path class="cls-1" d="M353.18,1195.56l-1.48-.14A4.1,4.1,0,0,0,353.18,1195.56Z"/><path class="cls-1" d="M85.65,1230.12l.35-2.39c4.1.11,1.09,2.78,4.89,2.32,1.62-3.37,6.28.66,7.68-1.07,0,.27,1.81.48,1.63,1.53.67-1.81,1.93-.32,3.13-.72.46-.49-.28-.57-.56-1.14l2.73-.5c1,.65,1.2,1.75.05,1.88l9.41,1.29,6.91.9c2.44.3,5,.62,7.57,1,5.13.71,10.27,1.3,14.63,1.82a93,93,0,0,0,9.85.84c-.82-1.49-3.28-.82-3.94-3.09,2.15-1,2.93.75,4-.43.41,3.32,4.35,1.25,5.5,4.72l.8-1.76.87,1.24c9.12-.8,2.15-.68,10,.73,4.59.27,7.11-1.95,9.54-.68-.38-.07-1.24-1.33,0-1.63,0,1.63,3.32-.72,3.68,1,1.19,0,4.93.67,4-1.69.49,1.18,3.79,2.08,1.66,2.76,1.13.22,2.18.68,3.07.32l-1.37-.81c3.89.22,5.74,2.23,8.52.61l-1.3-1.08c2.32.19,4.27.31,4.85,2.6l-2.45.33c3.82.5,6.13.67,9.49,0l-1.13-.23c2.19-.78,8.66-.81,15.11-.91s12.91-.23,15-1.29l-1.47-1.95,3.45-.91c-.38-.08-2.41,5.21-2.65,4.61,6.92.91,43.3,5.35,49.55,7.5,2.44,1.34,0,2.74,0,3,3.25-.13,1.64-1.56,4.3-1,.68.42-.36,1.29-.81,1.47,1.21,0,2.2.74,2.42,0-1.37-.84-.42-2.82-.83-4.27l3.42.73-.36,1.29c.76.16,2.52-3.28,5.8-2,5.63,1.47,11.91,2,17.61,3.21-.21.77-1.49,1-2.78,1.32.76.16,2,.15,2.59.83-1.17-1.61,2.56-.54,1.57-1.3,4.72-2.55,9.7,1.25,13.76-.34.78-2.84,15.83-48.37,16.37-51.81a6.91,6.91,0,0,1,2.59.83c-.17-.86-2.38-1.6-3.66-1.33l-.5,1.81c-2.88.21-.48-1.2-3.2-1.5.09-1.53,2.64-1.46,4.85-1.25-1.95-.49-3.74-1.9-4.81-.38-1.76-.92.5-1.81-1.64-2.81-1.66.19-4,1.33-5.68.15l.07-.26c-4.2-2.26-7.17,1.21-11-1l.52-.43c-1.3-1.1-4.31-.38-6.76-1.72.69.42,1.16,1.61-.43,1.55-2.83-1.42-5-.79-7-2.31l-2.32,1.14c-10.33-1.93-51.62-6.34-62.15-7.74l.45-.17c-4-.44-9.1-1.09-14.7-1.84l-18-2.31c-6.22-.73-12.45-1.43-18.2-2s-11-.82-15.3-.87c-2.4-1.81-6-1.89-8.71-2.64,1.44.8.79,1.77-.38,1.56-8.25-1.19-.68.94-9.12.53a104.75,104.75,0,0,1-11.57-.75l-8-.91c-2.8-.31-5.7-.66-8.59-1l-16.4-2.15c-4.86-.67-8.8-1.33-11-1.74-4.82,1.9-10.57-.08-15.23,1l.49-.49c-2.49.33-10.71-.3-19.06-.83-4.19-.2-8.4-.39-11.93-.5-1.77,0-3.36-.08-4.69-.06a29.54,29.54,0,0,0-3.14.22l.78.3c-5,1.43-4.37-1-8.39-1.63.57,2.42-3.73,3.87-5.36,4.09l0-.53c-2.48.44-8,2.86-12.11,3.36l.1-1.34a19.29,19.29,0,0,1-6.46,1.27c-2.34.2-4.57.27-5.79.43-2.83-.06-6.46-.5-10.32-.63a35.3,35.3,0,0,0-5.87.24,27.11,27.11,0,0,0-5.73,1.28l-5.32-3.23-.67.45A222.77,222.77,0,0,0-7.22,1195c.91,12.65,3.25,26.34,8.28,30.71V1227l1.74-.36c2.19.42,3-1.22,3,.11l-2.92.16c2.17.15.76,1,0,1.85a6.9,6.9,0,0,1,2.52.42c.36-.55-.37-.51-.73-.76,1.09-.59,2.55-2,4-1.55,2.19-.12.36,2.12,2.89,2,3.36-.1,6.72,0,10,0l5,0h2.49l2.5.07c6.67.2,13.3.09,20.14-.08.32.55,0,.53-.44.79,4.1-.62,7.75-.54,11.51-1.1a4.11,4.11,0,0,1,1.64,2c-.31-.55,4.88-.8,10.19-.87,2.65-.07,5.36.06,7.41.13A26.34,26.34,0,0,1,85.65,1230.12Z"/><path class="cls-1" d="M51.92,1381.79l-2.25.12A5.64,5.64,0,0,0,51.92,1381.79Z"/><path class="cls-1" d="M-345.29,1495.15l.38-4c6.44-.11,1.91,4.56,7.86,3.53,2.29-5.67,9.9.51,11.94-2.5,0,.45,2.87.6,2.7,2.37.87-3.08,3-.74,4.83-1.53.66-.86-.5-.92-1-1.84l4.21-1.11c1.65,1,2.07,2.78.28,3.13,11,1,63.91,3.74,75.77,2.23-1.53-2.32-5.19-.75-6.59-4.39,3.13-2,4.62.71,6-1.44,1.21,5.42,6.9,1.29,9.28,6.78l.9-3.07,1.56,1.88c13.79-3.21,3.15-1.57,15.38-.84,7.08-.47,10.44-4.73,14.38-3.15-.59,0-2.14-1.91-.31-2.7.31,2.7,4.88-1.93,5.78.79,1.8-.34,7.62,0,5.65-3.68,1,1.84,6.18,2.6,3.08,4.19,1.75.11,3.45.66,4.71-.15l-2.25-1c5.92-.52,9.13,2.35,13-1l-2.18-1.47c3.54-.22,6.5-.49,7.88,3.16l-3.63,1.11c5.87-.08,9.4-.31,14.3-2.23l-1.74-.1c6.24-3.62,38.85-6.48,44.62-11l-2.63-2.85,5-2.35c-.58,0-2.44,9.18-2.93,8.25,10.58-.21,65.65-2,75.4.09,3.93,1.61.66,4.5.61,5,4.81-1,2.1-3,6.18-2.69,1.11.52-.26,2.22-.89,2.61,1.79-.32,3.44.68,3.59-.64-2.22-1.05-1.24-4.55-2.16-6.84l5.25.36-.26,2.22c1.17.08,3-6,8.18-4.78,8.69,1.07,18.15.42,26.89,1-.15,1.33-2,2.09-3.85,2.85,1.17.08,3-.23,4,.74-2.08-2.38,3.69-1.52,2.05-2.53,6.48-5.34,14.7-.25,20.41-3.85.55-4.87,13.41-83.56,13.52-89.36,1.76.13,3.52.26,4.05.75-.43-1.37-3.89-2.07-5.75-1.32l-.37,3.1c-4.26,1-1-1.86-5.11-1.71-.18-2.54,3.64-3,7-3.23-3-.34-6-2.24-7.28.53-2.83-1.1.36-3.1-3-4.24-2.45.71-5.69,3.15-8.47,1.61l.06-.45c-6.77-2.72-10.47,3.69-16.66,1l.68-.84c-2.18-1.5-6.53.42-10.48-1.2,1.13.53,2.08,2.38-.3,2.65-4.54-1.66-7.67-.1-11-2.12l-3.23,2.45c-15.88-.7-78.63,2.23-94.57,2.57l.63-.39c-24.31,1.07-74.19.67-99.3,4.13-3.88-2.45-9.24-1.88-13.29-2.57,2.25,1,1.48,2.76-.28,2.66-12.34-.27-.83,1.69-13.31,2.76-14.37,2.25-69.37-.13-82.15-2.12-6.83,3.64-15.4,1-22.1,3.31l.67-.86c-7.2,1.39-48-1.59-56.42-.2l1.13.5c-7.28,2.33-6.33-1.64-12.1-2.8.8,4-5.43,6.42-7.82,6.75l.08-.89c-3.59.72-11.71,4.33-17.64,5l.2-2.22c-4.93,2.45-14.26,1.58-17.82,1.86-8.16-.82-20.79-4.48-31.64-1.38l-7.14-6.21-1,.64s-2.53,19.12-3.21,40.24.46,44.25,7.74,52.27l-.19,2.22,2.83-.33c3.41,1,4.94-1.55,4.75.66l-4.66-.2c3.42.59,1.06,1.8-.22,3.07a10.75,10.75,0,0,1,4,1.1c.66-.86-.51-.91-1-1.38,1.82-.81,4.35-2.93,6.6-1.94,3.5.15.28,3.58,4.36,3.76,21.52,1.39,42.38,3.68,64.09,2.94.5.91-.08.89-.71,1.31,6.53-1,12.35-.76,18.3-1.8a6.74,6.74,0,0,1,2.63,3.25C-379.72,1495.15-345.83,1494.65-345.29,1495.15Z"/></svg>